<?xml version="1.0" standalone="no"?>
<!DOCTYPE svg PUBLIC "-//W3C//DTD SVG 1.1//EN" "http://www.w3.org/Graphics/SVG/1.1/DTD/svg11.dtd" >
<!--
2013-9-30: Created.
-->
<svg>
<metadata>
Created by iconfont
</metadata>
<defs>

<font id="iconfont" horiz-adv-x="1024" >
  <font-face
    font-family="iconfont"
    font-weight="500"
    font-stretch="normal"
    units-per-em="1024"
    ascent="896"
    descent="-128"
  />
    <missing-glyph />
    
    <glyph glyph-name="zhihui1" unicode="&#58967;" d="M824.036415 789.961577a10.893612 10.893612 0 1 0-13.290207-17.277269A487.946686 487.946686 0 0 1 511.999782 874.212775C241.271727 874.212775 21.787225 654.728273 21.787225 384.000218S241.271727-106.212339 511.999782-106.212339a488.447792 488.447792 0 0 1 307.809912 108.674677 493.132045 493.132045 0 0 1 104.317232 115.995184 488.164558 488.164558 0 0 1 51.41785 105.66804A489.515366 489.515366 0 0 1 1002.212339 384.000218c0 102.748552-31.656838 200.703915-89.741578 282.798177a10.893612 10.893612 0 1 0 17.800162 12.571229A509.646762 509.646762 0 0 0 1023.999564 384.000218c0-57.496486-9.477443-113.729313-27.844073-166.977291a509.951783 509.951783 0 0 0-68.324737-131.790922 514.91927 514.91927 0 0 0-138.566749-131.725561A510.235017 510.235017 0 0 0 511.999782-127.999564C229.245179-127.999564 0.021787 101.223828 0.021787 384.000218S229.223392 896 511.999782 896c114.470079 0 223.231905-37.691899 312.036633-106.038423z m70.764906-65.928142a10.893612 10.893612 0 1 0-16.296844-14.488505 493.306343 493.306343 0 0 1-22.658714 23.857012 10.893612 10.893612 0 1 0 15.272845 15.534291c8.170209-8.061273 16.057185-16.340419 23.682713-24.902798zM392.257195 367.398353c0 140.592961 47.387214 255.651295 112.334931 255.651295 64.92593 0 112.313144-115.058334 112.313143-255.651295S569.518056 111.747057 504.592126 111.747057c-64.947717 0-112.334931 115.058334-112.334931 255.651296z m23.965947 0c0-128.544626 42.485088-231.685348 88.368984-231.685349s88.347196 103.118935 88.347196 231.685349c0 128.544626-42.485088 231.685348-88.347196 231.685348-45.905683 0-88.368984-103.118935-88.368984-231.685348zM448.42466 464.678311c121.747012 70.285587 245.106279 86.778516 277.569244 30.545689 32.462965-56.232827-43.487301-154.798232-165.2561-225.105606-121.747012-70.285587-245.106279-86.778516-277.569244-30.545689-32.462965 56.232827 43.509088 154.798232 165.2561 225.105606z m11.982974-20.763225c-111.332719-64.272313-179.417796-152.61951-156.475848-192.381195 22.941948-39.718111 133.490326-24.924585 244.823044 39.347728s179.417796 152.61951 156.475849 192.381195c-22.941948 39.718111-133.490326 24.924585-244.823045-39.347728zM448.42466 270.118394c-121.747012 70.307374-197.719065 168.850992-165.2561 225.105606 32.462965 56.232827 155.822232 39.739898 277.569244-30.545689 121.768799-70.307374 197.719065-168.850992 165.2561-225.105606-32.462965-56.232827-155.822232-39.739898-277.569244 30.545689z m11.982974 20.763225c111.332719-64.272313 221.881097-79.087626 244.823045-39.325941 22.941948 39.739898-45.14313 128.087094-156.475849 192.359408-111.332719 64.272313-221.881097 79.087626-244.823044 39.325941-22.941948-39.739898 45.14313-128.087094 156.475848-192.359408z"  horiz-adv-x="1024" />

    
    <glyph glyph-name="zhihui" unicode="&#58968;" d="M776 56c-59.2 0-131.2 12.8-208 40-16 6.4-25.6 24-19.2 40 6.4 16 24 25.6 40 19.2 163.2-57.6 276.8-40 304 4.8 27.2 48-19.2 147.2-115.2 240-12.8 12.8-12.8 32 0 44.8 12.8 12.8 32 12.8 44.8 0 123.2-118.4 171.2-241.6 126.4-318.4-28.8-44.8-91.2-70.4-172.8-70.4zM408 174.4c-4.8 0-11.2 1.6-16 4.8C152 318.4 9.6 524.8 75.2 638.4c33.6 57.6 112 83.2 222.4 70.4 102.4-11.2 220.8-52.8 332.8-118.4 16-9.6 20.8-28.8 11.2-43.2-9.6-16-28.8-20.8-43.2-11.2-104 60.8-214.4 100.8-308.8 110.4-81.6 9.6-140.8-6.4-160-40-41.6-70.4 75.2-244.8 292.8-372.8 16-9.6 20.8-28.8 11.2-43.2-3.2-11.2-14.4-16-25.6-16zM249.6 59.2c-83.2 0-147.2 24-176 75.2-65.6 113.6 78.4 318.4 320 457.6 4.8 3.2 9.6 4.8 14.4 8 16 8 35.2 3.2 43.2-12.8s3.2-35.2-12.8-43.2c-4.8-3.2-9.6-4.8-14.4-8-217.6-124.8-336-299.2-294.4-369.6 40-72 249.6-57.6 468.8 67.2 219.2 124.8 337.6 297.6 296 369.6-30.4 52.8-147.2 57.6-288 12.8-16-4.8-35.2 4.8-40 20.8-4.8 17.6 4.8 35.2 20.8 40 176 56 315.2 40 361.6-43.2 65.6-113.6-78.4-318.4-320-457.6-134.4-76.8-272-116.8-379.2-116.8zM512-104c-131.2 0-238.4 216-238.4 483.2S380.8 862.4 512 862.4s238.4-216 238.4-483.2S643.2-104 512-104z m0 902.4c-81.6 0-174.4-179.2-174.4-419.2S430.4-40 512-40s174.4 179.2 174.4 419.2S593.6 798.4 512 798.4z"  horiz-adv-x="1024" />

    
    <glyph glyph-name="wancheng" unicode="&#58908;" d="M856.26323-63.098851 167.735747-63.098851c-56.703443 0-102.83511 46.131667-102.83511 102.836133L64.900637 728.262718c0 56.704466 46.131667 102.836133 102.83511 102.836133l344.262718 0c22.606881 0 40.932248-18.326391 40.932248-40.932248s-18.325367-40.932248-40.932248-40.932248L167.735747 749.234355c-11.56336 0-20.970614-9.408277-20.970614-20.971637l0-688.525436c0-11.564383 9.407254-20.971637 20.970614-20.971637l688.527482 0c11.564383 0 20.971637 9.407254 20.971637 20.971637L877.234867 339.110627c0 22.606881 18.325367 40.932248 40.932248 40.932248s40.932248-18.325367 40.932248-40.932248l0-299.373345C959.099363-16.967184 912.967696-63.098851 856.26323-63.098851zM469.680661 222.131379C469.680661 222.131379 469.680661 222.131379 469.680661 222.131379c-10.856255 0-21.268396 4.313236-28.944216 11.989055L255.792269 419.066657c-15.985066 15.985066-15.985066 41.902342 0 57.886385 15.985066 15.986089 41.901319 15.986089 57.887408 0l156.000983-156.00303 379.336538 379.336538c15.985066 15.985066 41.901319 15.985066 57.886385 0s15.985066-41.901319 0-57.886385l-408.278707-408.27973C490.948033 226.444615 480.535893 222.131379 469.680661 222.131379z"  horiz-adv-x="1024" />

    
    <glyph glyph-name="layer" unicode="&#58907;" d="M971.06 147.763a25.6 25.6 0 0 0 21.913-46.285l-472.525-223.897a25.6 25.6 0 0 0-21.914 0L25.958 101.478a25.6 25.6 0 0 0 21.965 46.285l461.568-218.726L971.06 147.763z m0 166.247a25.6 25.6 0 1 0 21.913-46.285L520.448 43.878a25.6 25.6 0 0 0-21.914 0L25.958 267.725a25.6 25.6 0 1 0 21.965 46.285l461.568-218.624L971.06 314.01z m0 166.297a25.6 25.6 0 0 0 21.913-46.285L520.448 210.125a25.6 25.6 0 0 0-21.914 0L25.958 434.022a25.6 25.6 0 0 0 21.965 46.285l461.568-218.726L971.06 480.307z m-48.846 143.77L509.491 819.558 96.768 624.128 509.44 428.544l412.774 195.584z m70.759-23.143L520.448 377.037a25.6 25.6 0 0 0-21.914 0L25.958 600.934a25.6 25.6 0 0 0 0 46.234L498.586 871.014a25.6 25.6 0 0 0 21.913 0l472.525-223.846a25.6 25.6 0 0 0 0-46.234z"  horiz-adv-x="1024" />

    
    <glyph glyph-name="lajitong-copy" unicode="&#58906;" d="M457.468 102.955v416.961c0 17.73-14.341 32.080-32.071 32.080-17.737 0-32.080-14.35-32.080-32.080v-416.961c0-17.73 14.341-32.071 32.080-32.071 17.73 0 32.071 14.341 32.071 32.071zM393.317 744.441h256.605c17.73 0 32.071 14.341 32.071 32.071s-14.341 32.080-32.071 32.080h-256.605c-17.73 0-32.071-14.35-32.071-32.080s14.341-32.071 32.071-32.071zM810.286 584.066c-17.737 0-32.071-14.341-32.071-32.071v-481.113c0-35.426-28.724-64.151-64.151-64.151h-384.89c-35.426 0-64.151 28.724-64.151 64.151v481.113c0 17.73-14.341 32.071-32.071 32.071-17.696 0-32.071-14.341-32.071-32.071v-545.263c0-35.419 28.724-64.142 64.142-64.142h513.194c35.419 0 64.142 28.724 64.142 64.142v545.263c0 17.723-14.35 32.071-32.071 32.071zM906.51 712.37h-769.789c-17.696 0-32.071-14.35-32.071-32.080s14.374-32.080 32.071-32.080h769.789c17.723 0 32.071 14.35 32.071 32.080s-14.35 32.080-32.071 32.080zM649.913 102.955v416.961c0 17.73-14.341 32.080-32.080 32.080-17.73 0-32.071-14.35-32.071-32.080v-416.961c0-17.73 14.341-32.071 32.071-32.071 17.737 0 32.080 14.341 32.080 32.071z"  horiz-adv-x="1024" />

    
    <glyph glyph-name="wen" unicode="&#58974;" d="M512 896a512 512 0 1 1 512-512 512 512 0 0 1-512 512z m0-950.613333A438.613333 438.613333 0 1 0 950.613333 384 439.182222 439.182222 0 0 0 512-54.613333zM519.964444 650.24a167.253333 167.253333 0 0 0 113.777778-38.684444 133.12 133.12 0 0 0 43.804445-104.675556 139.377778 139.377778 0 0 0-27.875556-89.315556 733.866667 733.866667 0 0 0-61.44-56.888888 122.311111 122.311111 0 0 1-30.72-37.546667 104.675556 104.675556 0 0 1-11.946667-48.355556v-13.084444H467.626667v12.515555a154.168889 154.168889 0 0 0 14.791111 69.404445 361.244444 361.244444 0 0 0 83.057778 91.022222l11.946666 13.653333a81.351111 81.351111 0 0 1 20.48 53.475556 83.626667 83.626667 0 0 1-21.048889 60.302222 83.057778 83.057778 0 0 1-62.008889 21.048889 79.075556 79.075556 0 0 1-71.68-31.288889 120.035556 120.035556 0 0 1-19.911111-74.524444H346.453333a160.426667 160.426667 0 0 0 147.342223 170.666666 200.817778 200.817778 0 0 0 26.168888 2.275556zM506.88 221.866667a53.475556 53.475556 0 0 0 38.684444-14.222223 48.924444 48.924444 0 0 0 15.36-37.546666 52.906667 52.906667 0 0 0-15.928888-38.115556 56.888889 56.888889 0 0 0-76.231112 0 53.475556 53.475556 0 0 0-13.653333 38.115556 48.924444 48.924444 0 0 0 15.36 37.546666 52.337778 52.337778 0 0 0 38.115556 14.222223z"  horiz-adv-x="1024" />

    
    <glyph glyph-name="ziyuan17" unicode="&#59025;" d="M512 896a512 512 0 1 1 512-512A512 512 0 0 1 512 896z m0-930.909091a418.909091 418.909091 0 1 0 418.909091 418.909091 418.909091 418.909091 0 0 0-418.909091-418.909091zM733.556364 541.323636L465.454545 270.894545 284.392727 449.629091a53.061818 53.061818 0 0 1-26.996363 0A53.992727 53.992727 0 0 1 218.763636 384l224.814546-224.814545a41.425455 41.425455 0 0 1 52.130909 13.963636 53.061818 53.061818 0 0 1 11.170909 11.636364L798.72 477.090909a46.545455 46.545455 0 0 1 0 49.803636 46.545455 46.545455 0 0 1-65.163636 14.429091z"  horiz-adv-x="1024" />

    
    <glyph glyph-name="pingmufenbianshuai" unicode="&#58905;" d="M681.472 811.008H339.456c-57.856 0-104.96-49.152-104.96-109.056v-608.768c0-60.416 47.104-109.056 104.96-109.056h342.016c57.856 0 104.96 49.152 104.96 109.056V701.44c0 60.416-47.104 109.568-104.96 109.568z m59.392-733.696c-6.656-28.16-31.232-48.128-59.392-48.128H339.456c-27.648 0-52.736 19.968-59.392 48.128h460.8z m-435.2 651.264l25.6 17.408-10.752 15.872c6.144 2.048 12.8 3.584 19.456 3.584h342.016c33.792 0 60.928-28.672 60.928-63.488v-557.056l-12.288 18.432-25.088-17.408 14.336-20.992H279.04V701.44c0 16.384 6.144 31.744 15.872 43.008l10.752-15.872zM742.4 134.144v-9.216h-13.824l13.824 9.216zM635.633 246.717l25.344 17.362 17.356-25.344-25.344-17.356z m-69.607 101.274l25.344 17.357 17.357-25.344-25.344-17.357zM712.73 188.518l-25.344-17.356-17.362 25.344 25.344 17.356zM600.832 297.354l25.344 17.362 17.357-25.344-25.344-17.357z m-27.105 93.83l-25.344-17.357-17.362 25.344 25.344 17.356zM400.06 644.392l-25.344-17.357-17.356 25.344 25.344 17.357z m34.647-50.74l-25.344-17.356-17.356 25.344 25.344 17.357z m-86.87 126.751l17.361-25.344-25.344-17.367-17.362 25.344z m121.518-177.49l-25.344-17.356-17.357 25.344 25.344 17.357z m69.729-100.991L513.74 424.56l-17.367 25.344 25.344 17.356z m-34.663 50.457l-25.344-17.367-17.362 25.344 25.344 17.357zM369.664 303.616h-35.84v-112.64h124.928v35.84h-89.088z m288.768 296.96h35.84v112.64H569.344v-35.84h89.088z"  horiz-adv-x="1024" />

    
    <glyph glyph-name="rongliang" unicode="&#58913;" d="M1017.72 99.64L893.26 815a95.58 95.58 0 0 1-90.43 81H222.67a95.23 95.23 0 0 1-90.89-83.17L7.71 99.6A150.58 150.58 0 0 1 0 60.47V47a147 147 0 0 1 147.07-140.14h731.28c81.19 0 147.25 66.06 147.25 147.25 0 14.3-2.6 29.19-7.88 45.53zM878.36 201.37H147.08c-15.15 0-30.49-2.7-46.85-8.25L209.44 820.95H816l109.21-627.83c-16.36 5.55-31.7 8.25-46.85 8.25z m72.11-147.25A72.21 72.21 0 0 0 878.35-18H147.07a72.13 72.13 0 0 0 0 144.26h731.28a72.21 72.21 0 0 0 72.12-72.14zM623.39 530.43a110.69 110.69 0 0 1-221.38 0 74.14 74.14 0 0 1-50.62-126.09q1.29-1.31 2.63-2.54a73.61 73.61 0 0 1 45.35-19.45q1.82-0.12 3.66-0.15h219.38a74.14 74.14 0 0 1 1 148.24z m237.71-444.1a37.74 37.74 0 0 1-19.27 5.35 37.57 37.57 0 0 1 0-75.13 37.55 37.55 0 0 1 37.36 33.87 36.63 36.63 0 0 1 0.18 3.69 37.44 37.44 0 0 1-18.25 32.22z"  horiz-adv-x="1025" />

    
    <glyph glyph-name="shuangqiajileixing" unicode="&#59064;" d="M164.977778-40.106667c-18.773333 0-33.848889 15.36-33.848889 33.848889V511.715556c0 7.964444 2.844444 15.928889 7.964444 22.186666L363.235556 796.444444c6.542222 7.68 15.928889 11.946667 25.884444 11.946667H859.022222c18.773333 0 33.848889-15.36 33.848889-33.848889v-780.515555c0-18.773333-15.36-33.848889-33.848889-33.848889H164.977778z m23.893333 543.004445v-485.262222h646.257778V750.364444h-435.2l-211.057778-247.466666zM704.568889 88.177778H351.573333c-21.333333 0-38.684444 17.351111-38.684444 38.684444v190.862222c0 21.333333 17.351111 38.684444 38.684444 38.684445h352.995556c21.333333 0 38.684444-17.351111 38.684444-38.684445v-190.862222c0-21.333333-17.351111-38.684444-38.684444-38.684444z m-347.306667 44.657778h341.048889v178.915555H357.262222v-178.915555zM437.475556 492.942222c-10.808889 0-19.342222 8.533333-19.342223 19.342222V667.022222c0 10.808889 8.533333 19.342222 19.342223 19.342222s19.342222-8.533333 19.342222-19.342222v-154.737778c0-10.808889-8.817778-19.342222-19.342222-19.342222zM525.653333 492.942222c-10.808889 0-19.342222 8.533333-19.342222 19.342222V667.022222c0 10.808889 8.533333 19.342222 19.342222 19.342222s19.342222-8.533333 19.342223-19.342222v-154.737778c0.284444-10.808889-8.533333-19.342222-19.342223-19.342222zM614.115556 492.942222c-10.808889 0-19.342222 8.533333-19.342223 19.342222V667.022222c0 10.808889 8.533333 19.342222 19.342223 19.342222s19.342222-8.533333 19.342222-19.342222v-154.737778c0-10.808889-8.533333-19.342222-19.342222-19.342222zM702.577778 492.942222c-10.808889 0-19.342222 8.533333-19.342222 19.342222V667.022222c0 10.808889 8.533333 19.342222 19.342222 19.342222s19.342222-8.533333 19.342222-19.342222v-154.737778c0-10.808889-8.533333-19.342222-19.342222-19.342222z"  horiz-adv-x="1024" />

    
    <glyph glyph-name="shouji1" unicode="&#58896;" d="M709.222 819.128H314.785c-61.559 0-111.64-50.082-111.64-111.641v-646.974c0-61.559 50.08-111.64 111.64-111.64h394.437c61.559 0 111.641 50.081 111.641 111.64V707.487c-0.001 61.559-50.082 111.64-111.64 111.64z m60.472-758.615c0-33.345-27.128-60.473-60.473-60.473H314.784c-33.345 0-60.473 27.128-60.473 60.473v59.5h515.382v-59.5z m0 110.667H254.312V627.758h515.382V171.18z m0 507.747H254.312v28.56c0 33.346 27.128 60.474 60.473 60.474h394.437c33.345 0 60.473-27.128 60.473-60.473v-28.561zM540.29 748.94h-56.575c-14.129 0-25.583-11.455-25.583-25.584s11.454-25.584 25.583-25.584h56.575c14.13 0 25.584 11.454 25.584 25.584s-11.455 25.584-25.584 25.584z m-28.287-726.387c22.429 0 40.612 18.183 40.612 40.612s-18.183 40.612-40.612 40.612c-22.429 0-40.612-18.183-40.612-40.612s18.183-40.612 40.612-40.612z"  horiz-adv-x="1025" />

    
    <glyph glyph-name="cpu" unicode="&#58900;" d="M653.824 612.681143H363.227429a80.603429 80.603429 0 0 1-79.908572-79.908572v-290.596571c0-43.593143 36.315429-79.908571 79.908572-79.908571h290.596571a80.603429 80.603429 0 0 1 79.908571 79.908571V532.772571a80.603429 80.603429 0 0 1-79.908571 79.908572z m21.796571-370.468572c0-14.555429-7.277714-21.833143-21.796571-21.833142H363.227429c-14.518857 0-21.796571 7.277714-21.796572 21.796571V532.772571c0 14.518857 7.277714 21.796571 21.796572 21.796572h290.596571c14.518857 0 21.796571-7.277714 21.796571-21.796572v-290.596571z m312.356572 116.187429c14.555429 0 29.074286 14.555429 29.074286 29.074286s-14.518857 29.074286-29.074286 29.074285h-94.427429V532.772571h94.427429c14.555429 0 29.074286 7.277714 29.074286 21.796572 0 14.518857-14.518857 29.037714-29.074286 29.037714h-94.427429v108.982857a80.603429 80.603429 0 0 1-79.908571 79.908572h-108.982857V866.925714c0 14.555429-14.518857 29.074286-29.037715 29.074286-14.555429 0-21.796571-14.518857-21.796571-29.074286v-94.427428H537.6V866.925714c0 14.555429-14.555429 29.074286-29.074286 29.074286s-29.074286-14.518857-29.074285-29.074286v-94.427428H363.227429V866.925714C363.227429 881.481143 355.949714 896 341.430857 896c-14.518857 0-29.037714-14.518857-29.037714-29.074286v-94.427428h-108.982857a80.603429 80.603429 0 0 1-79.908572-79.908572v-108.982857H29.074286c-14.555429 0-29.074286-7.241143-29.074286-29.037714 0-21.796571 14.518857-21.796571 29.074286-21.796572h94.427428v-116.224H29.074286c-14.555429 0-29.074286-14.555429-29.074286-29.074285s14.518857-29.074286 29.074286-29.074286h94.427428v-116.224H29.074286c-14.555429 0-29.074286-7.241143-29.074286-21.796571 0-14.518857 14.518857-29.037714 29.074286-29.037715h94.427428v-108.982857c0-43.593143 36.315429-79.908571 79.908572-79.908571h108.982857v-94.427429c0-14.555429 14.518857-29.074286 29.037714-29.074286s21.796571 14.518857 21.796572 29.074286v94.427429h116.224v-94.427429c0-14.555429 14.555429-29.074286 29.074285-29.074286s29.074286 14.518857 29.074286 29.074286v94.427429h116.224v-94.427429c0-14.555429 14.518857-29.074286 29.037714-29.074286 14.555429 0 29.074286 14.518857 29.074286 29.074286v94.427429h108.982857a80.603429 80.603429 0 0 1 79.908572 79.908571v108.982857h94.427428c14.518857 0 29.074286 14.518857 29.074286 29.037715 0 14.555429-21.796571 21.796571-36.352 21.796571h-94.427429V358.4h94.427429z m-152.539429-276.041143c0-14.518857-7.277714-21.796571-21.796571-21.796571H203.410286c-14.518857 0-21.796571 7.277714-21.796572 21.796571V692.589714c0 14.518857 7.277714 21.796571 21.796572 21.796572h610.230857c14.518857 0 21.796571-7.277714 21.796571-21.796572v-610.230857z"  horiz-adv-x="1024" />

    
    <glyph glyph-name="-" unicode="&#58901;" d="M426.666667 469.333333a21.333333 21.333333 0 0 0-16.426667 7.68 21.333333 21.333333 0 0 0 2.773333 30.08l128 106.666667a21.333333 21.333333 0 1 0 27.306667-32.853333l-128-106.666667A21.333333 21.333333 0 0 0 426.666667 469.333333zM789.333333 682.666667v-597.333334H234.666667V682.666667h554.666666m0 42.666666H234.666667a42.666667 42.666667 0 0 1-42.666667-42.666666v-597.333334a42.666667 42.666667 0 0 1 42.666667-42.666666h554.666666a42.666667 42.666667 0 0 1 42.666667 42.666666V682.666667a42.666667 42.666667 0 0 1-42.666667 42.666666zM682.666667 682.666667v-170.666667H341.333333v170.666667h341.333334m42.666666 42.666666H298.666667v-213.333333a42.666667 42.666667 0 0 1 42.666666-42.666667h341.333334a42.666667 42.666667 0 0 1 42.666666 42.666667V725.333333z"  horiz-adv-x="1024" />

    
    <glyph glyph-name="dianliang" unicode="&#60324;" d="M731.428571 749.714286a182.857143 182.857143 0 0 0 182.857143-182.857143v-512A182.857143 182.857143 0 0 0 731.428571-128H292.571429a182.857143 182.857143 0 0 0-182.857143 182.857143v512A182.857143 182.857143 0 0 0 292.571429 749.714286h438.857142z m0-73.142857H292.571429a109.714286 109.714286 0 0 1-109.714286-109.714286v-512A109.714286 109.714286 0 0 1 292.571429-54.857143h438.857142a109.714286 109.714286 0 0 1 109.714286 109.714286v512A109.714286 109.714286 0 0 1 731.428571 676.571429zM528.384 562.980571a36.571429 36.571429 0 0 0 18.724571-42.934857l-2.413714-6.144L461.531429 347.428571H621.714286a36.571429 36.571429 0 0 0 34.962285-47.250285l-2.194285-5.705143-109.714286-219.428572a36.571429 36.571429 0 0 0-67.876571 26.624l2.413714 6.144L562.468571 274.285714H402.285714a36.571429 36.571429 0 0 0-34.962285 47.250286l2.194285 5.705143 109.714286 219.428571a36.571429 36.571429 0 0 0 49.152 16.310857zM658.285714 896a36.571429 36.571429 0 1 0 0-73.142857H365.714286a36.571429 36.571429 0 0 0 0 73.142857h292.571428z"  horiz-adv-x="1024" />

    
    <glyph glyph-name="daping" unicode="&#58902;" d="M900.608 73.728H121.344c-56.832 0-105.984 49.664-105.984 106.496v517.12C15.36 754.176 65.024 803.84 121.344 803.84h779.264c56.832 0 106.496-49.664 106.496-106.496v-517.12c0-64-49.664-106.496-106.496-106.496zM121.344 732.16c-20.992 0-35.328-14.336-35.328-35.328v-517.12c0-20.992 14.336-35.328 35.328-35.328h779.264c20.992 0 35.328 14.336 35.328 35.328v517.12c0 20.992-14.336 35.328-35.328 35.328H121.344z m850.432-778.752H50.688c-21.504 0-35.328 14.336-35.328 35.328s14.336 35.328 35.328 35.328h920.576c20.992 0 35.328-14.336 35.328-35.328s-13.824-35.328-34.816-35.328z m0 0M171.008 498.688c-21.504 0-35.328 14.336-35.328 35.328V640c0 21.504 14.336 35.328 35.328 35.328h113.152c14.336 0 35.328-14.336 35.328-35.328s-20.992-35.328-35.328-35.328H206.336v-77.824c0-14.336-13.824-28.16-35.328-28.16zM284.672 194.048H171.008c-21.504 0-35.328 14.336-35.328 35.328v113.152c0 14.336 14.336 35.328 35.328 35.328s35.328-14.336 35.328-35.328v-77.824h77.824c21.504 0 35.328-14.336 35.328-35.328 0.512-20.992-20.992-35.328-34.816-35.328zM850.944 498.688c-21.504 0-35.328 14.336-35.328 35.328V604.672h-77.824c-20.992 0-35.328 14.336-35.328 35.328s14.336 35.328 35.328 35.328h113.152c20.992 0 35.328-14.336 35.328-35.328v-113.152c0-14.336-13.824-28.16-35.328-28.16zM850.944 194.048h-113.152c-20.992 0-35.328 14.336-35.328 35.328 0 20.992 14.336 35.328 35.328 35.328h77.824v77.824c0 21.504 14.336 35.328 35.328 35.328 20.992 0 35.328-14.336 35.328-35.328v-113.152c0-20.992-13.824-35.328-35.328-35.328z"  horiz-adv-x="1024" />

    
    <glyph glyph-name="shexiangtou" unicode="&#58903;" d="M990.159137-64.122724v-63.877276H32v63.877276h447.14093v130.948415a415.202293 415.202293 0 1 0 63.877276 0V-64.122724h447.140931z m-127.754552 542.956844A351.325017 351.325017 0 1 1 511.079568 127.509103 351.325017 351.325017 0 0 1 862.404585 478.83412z m-447.14093 0A95.815914 95.815914 0 1 0 511.079568 383.018206 95.815914 95.815914 0 0 0 415.263655 478.83412z"  horiz-adv-x="1024" />

    
    <glyph glyph-name="yunyingshang" unicode="&#58904;" d="M176.69184 757.826512a472.021232 472.021232 0 0 1 0-666.980304l55.498254 55.64129a393.064953 393.064953 0 1 0 555.84076 0l55.641291-55.64129A472.021232 472.021232 0 0 1 176.69184 757.826512zM287.688348 646.114821a314.680821 314.680821 0 0 1 0-444.701216l55.641291 55.641291a235.724543 235.724543 0 1 0 333.418634 0l55.641291-55.641291a314.680821 314.680821 0 1 1-444.701216 444.701216zM277.10363 229.162732a39.335103 39.335103 0 1 1 39.335102 38.905993 39.335103 39.335103 0 0 1-39.335102-39.335103zM166.393195 118.309261a39.335103 39.335103 0 1 1 39.192066 39.192066 39.335103 39.335103 0 0 1-39.192066-39.192066zM665.305334 229.162732a39.335103 39.335103 0 1 1 39.335103 38.905993 39.335103 39.335103 0 0 1-39.335103-39.335103zM775.729695 118.595335a39.335103 39.335103 0 1 1 39.335103 39.335102 39.335103 39.335103 0 0 1-39.335103-39.335102zM210.162437-95.959771a69.658891 69.658891 0 0 1 57.214695-28.607347h483.607207a68.943707 68.943707 0 0 1 57.214695 28.607347 71.518368 71.518368 0 0 1-7.723984 90.828328L565.179618 230.307026a78.527169 78.527169 0 0 1-111.139545 0l-236.010616-236.153653a70.088001 70.088001 0 0 1-7.723983-90.113144z m473.880709 48.632491H334.175288a19.73907 19.73907 0 0 0-14.303674 33.613633L481.932237 147.488755a39.478139 39.478139 0 0 0 55.641291 0L698.203783-13.713647a19.73907 19.73907 0 0 0-14.303673-33.613633z"  horiz-adv-x="1024" />

    
    <glyph glyph-name="fenxiang" unicode="&#60056;" d="M853.578 234.285c-65.68 0-119.381-35.158-144.39-89.736L391.713 279.59c18.518 28.693 28.692 63.85 28.692 101.764 0 15.711-1.854 31.448-5.563 46.258l202.703 157.269c26.864-20.348 61.12-32.376 99.059-32.376 91.641 0 160.128 68.46 160.128 159.097 0 90.663-68.512 159.124-160.128 159.124-91.641 0-159.2-68.46-159.2-159.124 0-23.129 4.636-44.404 12.028-62.897L382.44 505.32c-37.012 55.505-98.106 94.372-167.52 94.372A204.97 204.97 0 0 1 9.438 394.309a204.97 204.97 0 0 1 205.485-205.356c42.575 0 82.369 11.076 114.77 31.423l364.711-155.388c4.636-86.027 71.268-149.851 159.175-149.851 91.667 0 159.226 68.435 159.226 159.097 0 90.663-68.512 160.05-159.2 160.05z"  horiz-adv-x="1024" />

    
    <glyph glyph-name="jinbi" unicode="&#59206;" d="M0 384.108215A511.891785 511.891785 0 1 1 511.891785 896 511.853513 511.853513 0 0 1 0 384.108215zM873.966718 745.915242L150.084758 21.899329A511.910921 511.910921 0 0 1 873.966718 745.915242zM139.789514 384.108215a372.197952 372.197952 0 1 1 744.395904-0.133953v0.133953a372.197952 372.197952 0 1 1-744.395904 0zM767.053096 654.444486a371.719549 371.719549 0 0 1-525.497582-525.497582c0 0.191361 525.497582 525.497582 525.497582 525.497582zM479.953565 278.955117h-91.604709v54.65282h91.604709v29.546203h-91.604709v54.65282h64.412252l-76.831608 155.844736h76.02789l49.371245-105.248778a199.015872 199.015872 0 0 0 13.395299-34.846913 224.141625 224.141625 0 0 0 13.395299 34.846913l50.423733 105.248778h76.02789l-77.750143-155.883008h65.46474v-54.614548h-92.925103v-29.565339h92.925103v-54.633684h-92.925103v-115.639703h-69.291968zM581.20289 426.743538l-147.84583-147.845829h46.462552v-115.639703h69.425921v115.639703h92.925103v54.65282h-92.925103v29.565339h92.925103v54.65282h-65.46474z"  horiz-adv-x="1024" />

    
    <glyph glyph-name="f" unicode="&#58891;" d="M1004.43010595 396.38773045C1004.53065573 667.1079048199999 785.15118892 886.64825123 514.43101457 886.74880099S24.17049378 667.4698839499999 24.06994402 396.7497096v-379.31391538a111.4091343 111.4091343 0 0 1 111.44935421-111.20803479h378.93182627c270.63973456 0.0804398 489.97898144 219.52023648 489.97898145 490.15997102M656.22628638 326.30454758999997H426.26898482V556.24173922C426.26898482 683.2561963 529.21182931 786.1990408 656.22628638 786.1990408S886.18358797 683.2561963 886.18358797 556.24173922c-0.02010994-126.99434714-102.96295444-229.93719163-229.95730159-229.93719163z m-122.38916812 107.54802351h122.38916812a122.38916812 122.38916812 0 1 1-122.38916812 122.38916812v-122.38916812zM725.58551098 779.3616571a183.18155313 183.18155313 0 0 1-50.83795877 6.8373837c-127.03456704 0-230.03774139-103.00317435-230.05785131-230.05785135v-121.96685911h-96.34678025a53.55280228 53.55280228 0 1 1-0.56307864-107.10560458h79.77617975a17.13367915 17.13367915 0 0 0 17.15378907-17.11356916v-105.53702831a121.44400037 121.44400037 0 0 0-121.44400037-121.20268095c-22.68402591 0-28.31481246 2.95616294-43.79947553 2.95616295-32.5379024 0-54.31698045-21.81929796-54.31698047-51.80323646 0-24.79557087 21.27632926-46.13222999 47.27849725-52.96961367 16.53038059-4.62528897 33.64394977-6.9580434 50.8178488-6.8373837 127.05467699 0.02010994 230.05785133 103.02328429 230.05785134 230.05785135v121.92663923h96.34678021a53.57291223 53.57291223 0 1 1 0.58318862 107.10560453H570.45734094a17.13367915 17.13367915 0 0 0-17.15378909 17.11356922v105.53702829a121.46411031 121.46411031 0 0 0 121.44400036 121.24290085c22.66391596 0 28.29470253-2.95616294 43.79947554-2.95616295 32.51779245 0 54.29687052 21.799188 54.29687051 51.80323644 0 24.81568081-21.23610935 46.15233994-47.25838728 52.96961368zM1004.43010595 396.38773045C1004.53065573 667.1079048199999 785.15118892 886.64825123 514.43101457 886.74880099S24.17049378 667.4698839499999 24.06994402 396.7497096v-379.31391538a111.4091343 111.4091343 0 0 1 111.44935421-111.20803479h378.93182627c270.63973456 0.0804398 489.97898144 219.52023648 489.97898145 490.15997102M656.22628638 326.30454758999997H426.26898482V556.24173922C426.26898482 683.2561963 529.21182931 786.1990408 656.22628638 786.1990408S886.18358797 683.2561963 886.18358797 556.24173922c-0.02010994-126.99434714-102.96295444-229.93719163-229.95730159-229.93719163z m-122.38916812 107.54802351h122.38916812a122.38916812 122.38916812 0 1 1-122.38916812 122.38916812v-122.38916812zM725.58551098 779.3616571a183.18155313 183.18155313 0 0 1-50.83795877 6.8373837c-127.03456704 0-230.03774139-103.00317435-230.05785131-230.05785135v-121.96685911h-96.34678025a53.55280228 53.55280228 0 1 1-0.56307864-107.10560458h79.77617975a17.13367915 17.13367915 0 0 0 17.15378907-17.11356916v-105.53702831a121.44400037 121.44400037 0 0 0-121.44400037-121.20268095c-22.68402591 0-28.31481246 2.95616294-43.79947553 2.95616295-32.5379024 0-54.31698045-21.81929796-54.31698047-51.80323646 0-24.79557087 21.27632926-46.13222999 47.27849725-52.96961367 16.53038059-4.62528897 33.64394977-6.9580434 50.8178488-6.8373837 127.05467699 0.02010994 230.05785133 103.02328429 230.05785134 230.05785135v121.92663923h96.34678021a53.57291223 53.57291223 0 1 1 0.58318862 107.10560453H570.45734094a17.13367915 17.13367915 0 0 0-17.15378909 17.11356922v105.53702829a121.46411031 121.46411031 0 0 0 121.44400036 121.24290085c22.66391596 0 28.29470253-2.95616294 43.79947554-2.95616295 32.51779245 0 54.29687052 21.799188 54.29687051 51.80323644 0 24.81568081-21.23610935 46.15233994-47.25838728 52.96961368z"  horiz-adv-x="1024" />

    
    <glyph glyph-name="huangguan" unicode="&#58885;" d="M97.3 538.9l2.7 7.5c6.8 20.4 24.7 34.1 46.5 35.7 19.9 1.4 39.8-10.2 49.1-28.4 9.5-18.6 6.8-40.6-6.9-57-1.6-1.8-3.2-3.6-5-5.7 38.5-23.6 76.8-46.9 115-70.4 14.5-8.9 29-17.9 43.5-26.5 8.3-4.9 14.6-3.4 19.1 4.7 43.8 79.9 87.7 159.9 131.9 240.6-19.1 9.7-31.5 24.5-32.6 46.5-0.8 15.4 4.7 28.6 15.6 39.4 21.7 21.1 57.3 19.1 76.3-4.3 21.9-26.8 14-58.2-20.7-81.8 11.3-20.7 22.7-41.6 34.2-62.3 31.9-58 63.5-115.8 95.4-173.8 7.3-13.4 12-14.6 25.1-6.8 49.3 30.1 98.4 60.3 147.7 90.4 2.3 1.4 4.5 2.8 7.1 4.5-10.2 10.2-16.6 21.7-17.4 35.9-1.4 26.5 16.8 49.7 42.4 54.1 26.6 4.7 51.4-10.6 59.2-36.3 0.6-2 1.4-4.1 2.2-6.1v-17.9c-8.4-26.8-25.6-42.4-55.2-42.6-1-3-2.2-6.1-3-9.1-28.8-98.8-57.6-197.8-86.5-296.6-3.7-12.9-8.3-16.3-21.3-16.3H264c-14 0-18.3 3.2-22.1 16.3-23.5 80.2-46.7 160.6-70.2 240.8-6.3 21.7-12.7 43.4-19.1 65.1-22.1 0-38.7 8.7-49.1 27.8-2.5 4.7-4.1 9.9-6.1 14.8-0.1 6-0.1 11.9-0.1 17.8z m0 0M512.3 104.29999999999995h232.5c20.7 0 37.3-14.6 39.6-34.3 2.3-19.9-10.7-37.9-30.8-42.4-2.9-0.8-5.9-0.9-8.8-0.9H279.6c-17.7 0-32.6 10.6-37.8 26.5-5.3 16-0.4 34 13.8 43.2 7.3 4.7 17 7.9 25.6 7.9 77.1 0.4 154.1 0 231.1 0z m0 0"  horiz-adv-x="1024" />

    
    <glyph glyph-name="service" unicode="&#58887;" d="M819.656 269.078c-8.542 0-16.927 4.114-22.083 11.745-8.281 12.187-5.052 28.775 7.136 37.005 64.427 43.54 133.959 141.719 133.959 224.348 0 132.292-107.605 239.922-239.897 239.922-63.125 0-122.813-24.504-168.073-68.959a26.659 26.659 0 0 0-37.395 0c-45.21 44.48-104.897 68.96-168.022 68.96-132.292 0-239.948-107.63-239.948-239.923 0-91.458 50.833-173.697 132.656-214.661 13.177-6.59 18.49-22.63 11.928-35.782-6.615-13.228-22.656-18.463-35.782-11.927C94.135 329.885 32 430.406 32 542.1759999999999 32 703.87 163.562 835.434 325.28 835.434c68.804 0 134.22-23.751 186.72-67.37 52.552 43.619 117.968 67.369 186.77 67.369C860.439 835.432 992 703.87 992 542.178c0-101.485-80.053-216.223-157.396-268.515a26.607 26.607 0 0 0-14.948-4.585zM776.895 178.14c-21.978 0-42.603 8.569-58.125 24.09L617.052 303.92100000000005c-10.417 10.416-10.417 27.291 0 37.708 10.417 10.416 27.292 10.416 37.708 0l101.718-101.694c10.937-10.937 29.897-10.91 40.834 0.027 11.25 11.224 11.25 29.557 0 40.807L505.333 564.573c-10.572 10.26-10.78 27.136-0.52 37.709 10.312 10.547 27.187 10.781 37.708 0.521l292.24-284.064c32.29-32.317 32.29-84.453 0.26-116.51-15.573-15.547-36.198-24.088-58.125-24.088zM708.198 89.02499999999998c-21.041 0-42.084 7.996-58.125 24.038l-51.98 52.005c-10.416 10.416-10.416 27.291 0 37.708 10.418 10.417 27.293 10.417 37.71 0l51.98-52.005c11.25-11.25 29.582-11.25 40.832 0 5.47 5.469 8.49 12.708 8.49 20.417 0 7.734-3.022 14.973-8.49 20.415l-137.918 137.97c-10.416 10.417-10.416 27.292 0 37.708s27.293 10.416 37.71 0l137.916-137.943c15.521-15.521 24.115-36.172 24.115-58.15 0-21.954-8.595-42.604-24.115-58.152-16.041-16.015-37.084-24.01-58.125-24.01zM629.552 10.327999999999975c-21.98 0-42.604 8.568-58.125 24.088l-12.709 12.76c-10.416 10.417-10.416 27.292 0 37.709 10.417 10.364 27.292 10.418 37.71-0.052l12.707-12.735c10.938-10.884 29.896-10.91 40.834 0.027 11.25 11.25 11.25 29.609 0 40.86l-27.396 27.394c-10.416 10.418-10.416 27.293 0 37.709s27.293 10.417 37.71 0l27.395-27.396c32.032-32.057 32.032-84.219 0-116.276-15.522-15.52-36.147-24.088-58.126-24.088zM551.792-67.43299999999999c-21.98 0-42.604 8.57-58.125 24.089l-12.709 12.76c-10.416 10.417-10.416 27.292 0 37.709 10.417 10.364 27.292 10.418 37.71-0.052l12.707-12.735c10.938-10.884 29.896-10.91 40.834 0.027 11.25 11.25 11.25 29.609 0 40.86l-11.039 11.039c-10.417 10.416-10.417 27.29 0 37.707s27.293 10.417 37.71 0l11.038-11.04c32.032-32.056 32.032-84.218 0-116.275-15.522-15.52-36.147-24.088-58.126-24.088zM252.208 208.27200000000005c-21.927 0-42.552 8.542-58.125 24.062-32.031 32.083-32.031 84.22 0 116.276l87.604 87.604c31.198 31.12 85.261 31.016 116.25 0 15.521-15.521 24.115-36.171 24.115-58.125s-8.595-42.604-24.115-58.151l-87.603-87.578c-15.52-15.52-36.145-24.088-58.125-24.088z m87.604 198.698c-7.708 0-14.947-3.02-20.416-8.49l-87.603-87.577c-11.25-11.25-11.25-29.584 0-40.834 10.936-10.885 29.895-10.937 40.833 0l87.604 87.604c5.468 5.47 8.49 12.709 8.49 20.416s-3.022 14.949-8.49 20.39c-5.47 5.495-12.709 8.49-20.418 8.49zM330.75 129.72799999999995c-21.928 0-42.552 8.543-58.125 24.063-32.031 32.057-32.031 84.193 0 116.276l87.604 87.604c31.198 31.12 85.208 31.04 116.302 0.026 32.031-32.084 32.031-84.219 0-116.276l-87.657-87.604c-15.52-15.52-36.145-24.089-58.125-24.089z m87.604 198.699c-7.709 0-14.948-3.022-20.417-8.49l-87.603-87.578c-11.25-11.25-11.25-29.583 0-40.833 10.938-10.886 29.896-10.937 40.834 0l87.656 87.603c11.25 11.25 11.25 29.584 0 40.834-5.469 5.443-12.708 8.464-20.469 8.464zM409.291 51.160999999999945c-21.927 0-42.552 8.543-58.125 24.063-32.031 32.083-32.031 84.244 0 116.302l87.656 87.603c30.99 30.99 85.053 31.12 116.25 0.027 32.033-32.083 32.033-84.22 0-116.277l-87.656-87.63c-15.521-15.52-36.145-24.088-58.125-24.088z m87.656 198.724c-7.708 0-14.947-2.995-20.415-8.463l-87.657-87.605c-11.25-11.25-11.25-29.609 0-40.859 10.937-10.885 29.897-10.936 40.834 0l87.656 87.63c11.25 11.25 11.25 29.583 0 40.834-5.47 5.442-12.71 8.463-20.417 8.463zM487.833-27.379999999999995c-21.928 0-42.552 8.542-58.125 24.062-32.031 32.083-32.031 84.22 0 116.276l87.656 87.63c30.99 31.016 85.105 31.094 116.25 0.026 32.032-32.11 32.032-84.244 0-116.277l-87.603-87.629c-15.573-15.547-36.2-24.089-58.178-24.089z m87.656 198.724c-7.708 0-14.947-2.995-20.416-8.464l-87.656-87.63c-11.25-11.25-11.25-29.582 0-40.833 10.937-10.885 29.948-10.86 40.885 0.026l87.604 87.604c11.25 11.25 11.25 29.583 0 40.833-5.468 5.443-12.709 8.464-20.417 8.464zM387.626 457.177c-21.928 0-42.553 8.542-58.125 24.062-32.032 32.084-32.032 84.219 0 116.277l164.27 154.087c10.677 10.027 27.603 9.558 37.656-1.198 10.103-10.755 9.583-27.63-1.198-37.71L366.583 559.2080000000001c-10.625-10.65-10.625-28.983 0.625-40.234 10.938-10.885 29.896-10.937 40.834 0l98.489 84.921c11.198 9.532 28.02 8.335 37.604-2.812 9.584-11.146 8.334-27.994-2.813-37.604l-97.031-83.569c-14.063-14.164-34.687-22.732-56.665-22.732z"  horiz-adv-x="1024" />

    
    <glyph glyph-name="gift" unicode="&#58888;" d="M85.930667-54.01599999999996c0-24.576 7.125333-31.317333 29.44-31.317333l353.365333 0L468.736 384.256 85.930667 384.256 85.930667-54.01599999999996zM555.264-85.33333300000004l353.365333 0c22.357333 0 29.44 6.698667 29.44 31.317333L938.069333 384.256l-382.848 0L555.221333-85.33333300000004zM938.666667 640l-213.333333 0c51.498667 11.733333 105.898667 49.706667 112.597333 94.293333 7.850667 50.858667-52.565333 127.957333-125.653333 118.186667-87.424-12.117333-151.509333-89.258667-196.736-149.077333C470.656 762.069333 412.16 830.592 328.362667 850.517333c-81.152 19.2-136.746667-64.938667-135.253333-116.992C194.56 689.28 245.717333 651.690667 298.666667 640L85.333333 640C58.965333 640 42.666667 625.152 42.666667 597.333333l0-170.581333L469.333333 426.666667 469.333333 640l85.333333 0 0-213.333333 426.666667 0.085333L981.333333 597.333333C981.333333 625.152 964.992 640 938.666667 640zM251.648 717.8240000000001C236.885333 734.250667 246.869333 756.565333 256.128 773.418667c17.024 29.696 40.746667 47.744 81.152 30.933333 56.32-23.509333 97.792-73.216 131.584-117.802667C397.312 678.656 290.56 675.5840000000001 251.648 717.8240000000001zM562.944 687.317333c34.816 44.629333 75.221333 89.941333 131.157333 117.802667 58.581333 28.970667 113.024-49.322667 85.205333-86.912-21.418667-28.544-89.258667-31.232-125.909333-32.853333C623.317333 683.818667 592.896 684.544 562.944 687.317333z"  horiz-adv-x="1024" />

    
    <glyph glyph-name="shezhi" unicode="&#58893;" d="M881 384c0 52.4 32.9 96.8 79 114.5-11 43.2-28 83.9-50.2 121.3C864.6 599.7 810 607.9 773 645c-37 37-45.2 91.7-25.1 136.8C710.4 804 669.7 821 626.5 832c-17.8-46.1-62.2-79-114.5-79-52.4 0-96.8 32.9-114.5 79-43.2-11-83.9-28-121.3-50.2 20.1-45.2 11.9-99.8-25.1-136.8-37-37-91.7-45.2-136.8-25.2C92 582.4 75 541.7 64 498.5c46.1-17.8 79-62.2 79-114.5 0-52.4-32.9-96.8-79-114.5 11-43.2 28-83.9 50.2-121.3C159.4 168.3 214 160.1 251 123c37-37 45.2-91.7 25.1-136.8C313.6-36 354.3-53 397.5-64c17.8 46.1 62.2 79 114.5 79 52.4 0 96.8-32.9 114.5-79 43.2 11 83.9 28 121.3 50.2-20.1 45.2-11.9 99.8 25.1 136.8 37 37 91.7 45.2 136.8 25.2C932 185.6 949 226.3 960 269.5c-46.1 17.7-79 62.1-79 114.5zM512 261c-67.9 0-123 55.1-123 123s55.1 123 123 123 123-55.1 123-123-55.1-123-123-123z"  horiz-adv-x="1024" />

    
    <glyph glyph-name="fangzi" unicode="&#58894;" d="M604.051561-128V239.589744c0 18.379487 2.625641 34.133333-15.753846 34.133333h-154.912821c-15.753846 0-13.128205-15.753846-13.128205-34.133333v-367.589744l-170.666666 2.625641C176.072074-125.374359 131.436176-85.989744 131.436176-22.974359V318.358974H102.554125C36.913099 318.358974 13.28233 347.241026 5.405407 362.994872c-7.876923 15.753846-13.128205 49.887179 28.882051 94.523077L399.251561 846.112821C428.133612 877.620513 467.518228 896 512.154125 896c42.010256 0 84.020513-18.379487 112.902564-49.887179l362.338462-385.969231c42.010256-44.635897 36.758974-78.769231 28.882051-94.523077-5.251282-18.379487-28.882051-47.261538-97.148718-47.261539h-26.25641v-341.333333c0-63.015385-47.261538-102.4-118.153846-102.4L604.051561-128z"  horiz-adv-x="1024" />

    
    <glyph glyph-name="qianbao" unicode="&#58895;" d="M1052.26752 25.989119999999957c0-13.5168-2.36032-26.0864-7.02976-37.80096a94.18752 94.18752 0 0 0-20.04992-30.85824 93.17376 93.17376 0 0 0-30.34624-20.74112c-11.55584-4.95104-24.20736-7.43936-37.93408-7.4496H170.13248c-13.73184 0-26.73152 2.47296-39.00928 7.4496a104.28416 104.28416 0 0 0-32.52736 20.74112 98.82624 98.82624 0 0 0-22.22592 30.85824c-5.41696 11.72992-8.12032 24.32512-8.12032 37.80096V557.19424c0 26.98752 9.56928 49.87904 28.70784 68.6848 19.14368 18.80576 42.45504 28.20096 69.9136 28.20096H953.6512c27.45856 0 50.75968-9.3952 69.89312-28.20096 19.14368-18.80064 28.71808-41.69728 28.71808-68.6848v-144.77312h-246.00576c-27.4688 0-50.76992-9.22624-69.90336-27.68896-19.15904-18.4576-28.71808-41.18528-28.71808-68.13696 0.71168-18.4576 4.6848-34.79552 11.91936-48.99328 5.79584-12.0576 15.35488-23.05536 28.71808-33.00352 13.35808-9.94816 32.6912-14.91968 57.984-14.91968h246.00576v-193.75616 0.06656zM904.8832 703.0374400000001H412.88704c39.02976 19.87072 75.8784 39.04 110.55616 57.50272 30.34112 15.616 60.31872 31.23712 89.93792 46.83264a7973.31456 7973.31456 0 0 0 69.36064 36.21888c25.2928 13.4912 47.87712 19.70176 67.72224 18.6368 19.8656-1.06496 36.65408-4.43904 50.38592-10.11712 15.8976-7.81824 29.63968-18.10432 41.20576-30.8736l62.82752-118.20032z m-147.39456-386.44224c0 13.4912 4.70528 24.85248 14.08512 34.05824 9.39008 9.216 20.95616 13.83424 34.68288 13.83424s25.2928-4.61824 34.66752-13.83424c9.39008-9.20576 14.08512-20.57216 14.08512-34.05824s-4.69504-25.02656-14.08512-34.6112c-9.37472-9.57952-20.9408-14.3872-34.66752-14.3872s-25.2928 4.80256-34.68288 14.3872c-9.37984 9.58464-14.08512 21.12-14.08512 34.6112z"  horiz-adv-x="1120" />

    
    <glyph glyph-name="daifukuan" unicode="&#58897;" d="M640 432.64c-43.52 0-76.8-33.28-76.8-76.8s33.28-76.8 76.8-76.8 76.8 33.28 76.8 76.8S683.52 432.64 640 432.64zM640 314.88c-23.04 0-38.4 17.92-38.4 38.4 0 23.04 17.92 38.4 38.4 38.4 23.04 0 38.4-17.92 38.4-38.4C680.96 332.8 663.04 314.88 640 314.88zM888.32 40.96c0-12.8-10.24-23.04-23.04-23.04l-742.4 0c-15.36 0-28.16 7.68-28.16 23.04L94.72 627.2c0 15.36 12.8 28.16 28.16 28.16l737.28 0c15.36 0 28.16-12.8 28.16-28.16l0-48.64c0-7.68 7.68-15.36 15.36-15.36l7.68 0c7.68 0 15.36 7.68 15.36 15.36l0 51.2c0 33.28-28.16 66.56-61.44 66.56l-61.44 0L803.84 780.8c0 7.68-5.12 15.36-15.36 15.36L161.28 796.16c-25.6 0-64 0-84.48-30.72C61.44 747.52 56.32 729.6 56.32 665.6c0 0 0-632.32 0-632.32 0-33.28 28.16-56.32 61.44-56.32l750.08 0c33.28 0 61.44 23.04 61.44 56.32L929.28 128c0 7.68-7.68 15.36-15.36 15.36l-10.24 0c-7.68 0-15.36-7.68-15.36-15.36L888.32 40.96zM107.52 737.28c12.8 15.36 25.6 17.92 40.96 17.92l619.52 0 0-61.44L128 693.76c-12.8 0-23.04-5.12-30.72-10.24C94.72 711.68 97.28 724.48 107.52 737.28zM952.32 524.8l-325.12 0c-92.16 0-168.96-76.8-168.96-168.96 0-94.72 74.24-171.52 168.96-171.52l325.12 0c7.68 0 15.36 7.68 15.36 15.36L967.68 509.44C967.68 517.12 962.56 524.8 952.32 524.8zM926.72 222.72 629.76 222.72c-74.24 0-133.12 58.88-133.12 133.12 0 74.24 58.88 133.12 133.12 133.12l299.52 0L926.72 222.72z"  horiz-adv-x="1024" />

    
    <glyph glyph-name="huoche" unicode="&#58890;" d="M573.361457 896h679.884948c16.199425 0 30.926174-6.872483 41.234899-17.181208l0.490892-0.490892c10.799616-10.308725 17.181208-25.526366 17.181208-41.725791v-778.55417c0-16.690316-6.872483-31.417066-17.181208-42.216683-10.799616-10.308725-25.526366-17.181208-41.725791-17.181208h-236.118888c0.490892 2.94535 0.490892 5.399808 0.490891 8.345158 0 13.744966-2.94535 26.999041-7.854266 38.780441h243.482263c2.94535 0 5.8907 1.472675 8.345158 3.436242 1.963567 2.454458 3.436242 5.399808 3.436241 8.83605V836.602109c0 3.436242-1.472675 6.381592-3.436241 8.83605-2.454458 1.963567-5.399808 3.436242-8.345158 3.436242H573.361457c-3.436242 0-6.381592-1.472675-8.345158-3.436242-2.454458-2.454458-3.927133-5.399808-3.927133-8.83605v-778.55417c0-3.436242 1.472675-6.381592 3.927133-8.83605 1.963567-1.963567 4.908917-3.436242 8.345158-3.436242h259.681688c-5.399808-11.7814-8.345158-25.035475-8.345158-38.780441 0-2.94535 0-5.399808 0.490891-8.345158h-251.827421c-16.199425 0-30.926174 6.872483-41.725791 17.181208-10.799616 10.799616-17.6721 25.526366-17.672099 42.216683V836.602109c0 16.690316 6.872483 31.417066 17.672099 42.216683 10.799616 10.308725 25.526366 17.181208 41.725791 17.181208zM196.847555 693.261745h341.169703c13.254075 0 23.5628-10.799616 23.5628-23.5628v-647.486097c0-13.254075-10.308725-23.5628-23.5628-23.5628H367.677852c0 2.94535 0.490892 6.381592 0.490892 9.817833 0 13.254075-2.94535 25.526366-7.854267 37.307766h154.139981V646.136146H206.665388L47.125599 486.596357v-440.82071h135.486098c-4.908917-11.7814-7.363375-24.053691-7.363375-37.307766 0-3.436242 0-6.872483 0.490892-9.817833H23.5628c-13.254075 0-23.5628 10.308725-23.5628 23.5628V496.41419c0 6.381592 2.454458 12.272291 6.872483 16.690316l173.284756 173.284756c4.908917 4.418025 10.799616 6.872483 16.690316 6.872483zM271.953979 151.317354c38.780441 0 73.633749-15.708533 98.669223-40.744008v-0.490892c25.526366-25.035475 41.234899-59.888782 41.2349-98.178331 0-38.780441-15.708533-73.633749-41.2349-99.160115-25.035475-25.035475-59.888782-40.744008-98.669223-40.744008-38.289549 0-73.142857 15.708533-98.669223 40.744008v0.490891c-25.035475 25.035475-40.744008 59.888782-40.744008 98.669224 0 38.289549 15.708533 73.142857 40.744008 98.669223 25.526366 25.035475 60.379674 40.744008 98.669223 40.744008z m65.779482-74.124641c-17.181208 16.690316-40.253116 26.999041-65.779482 26.999042s-48.598274-10.308725-65.288591-26.999042-26.999041-39.762224-26.999041-65.28859c0-26.017258 10.308725-49.089166 26.999041-65.779483s39.762224-26.999041 65.288591-26.999041 48.598274 10.308725 65.288591 26.999041c17.181208 16.690316 27.489933 39.762224 27.489932 65.779483 0 25.526366-10.308725 48.598274-26.999041 65.28859zM924.839885 151.317354c38.289549 0 73.142857-15.708533 98.178332-40.744008l0.490891-0.490892c25.035475-25.035475 40.744008-59.888782 40.744008-98.178331 0-38.780441-15.708533-73.633749-40.744008-99.160115-25.526366-25.035475-60.379674-40.744008-98.669223-40.744008-38.780441 0-73.633749 15.708533-98.669223 40.744008l-0.490892 0.490891c-25.035475 25.035475-40.744008 59.888782-40.744008 98.669224 0 38.289549 15.708533 73.142857 40.744008 98.669223 25.526366 25.035475 60.379674 40.744008 99.160115 40.744008z m65.288591-74.124641c-16.690316 16.690316-39.762224 26.999041-65.288591 26.999042-26.017258 0-49.089166-10.308725-65.779482-26.999042s-26.999041-39.762224-26.999042-65.28859c0-26.017258 10.308725-49.089166 26.999042-65.779483s39.762224-26.999041 65.779482-26.999041c25.526366 0 48.598274 10.308725 65.288591 26.999041s26.999041 39.762224 26.999041 65.779483c0 25.526366-10.308725 48.598274-26.999041 65.28859zM319.57047 582.811122c0 13.254075 10.308725 23.5628 23.562799 23.562799 12.763183 0 23.5628-10.308725 23.5628-23.562799v-225.810163c0-12.763183-10.799616-23.5628-23.5628-23.5628H153.158198c-13.254075 0-23.5628 10.799616-23.5628 23.5628 0 13.254075 10.308725 23.5628 23.5628 23.562799h166.412272V582.811122z"  horiz-adv-x="1312" />

    
    <glyph glyph-name="banshou" unicode="&#58882;" d="M135.545328-101.53381119999995a109.8508192 109.8508192 0 0 0-78.25736 32.22895893c-43.50909547 43.50909547-42.80550507 114.98021653 1.54335893 159.35177707l374.87726827 374.8999648c-45.12054293 108.62521067-20.38141227 235.47567147 63.32309547 319.1801792a290.5145632 290.5145632 0 0 0 206.78735786 85.6564032c38.51587627 0 76.03310827-7.3990432 111.48496427-21.99285973a17.02233813 17.02233813 0 0 0 5.5606304-27.75775894l-160.6454752-160.64547413 22.85532587-102.88300907 102.883008-22.85532586 160.66817173 160.6454752a17.02233813 17.02233813 0 0 0 27.75775893-5.5606304 291.8309568 291.8309568 0 0 0-63.66354346-318.27232214 290.65074133 290.65074133 0 0 0-206.8100544-85.67909866h-0.02269654c-38.4023936 0-76.98635947 7.7167936-112.34742826 22.37869973l-374.8999648-374.8999648a113.93618027 113.93618027 0 0 0-81.09441707-33.7950144z m568.27372053 937.24991147a256.69685227 256.69685227 0 0 1-182.70642346-75.6699648 259.39772907 259.39772907 0 0 1-51.6798176-291.74017067 16.97694507 16.97694507 0 0 0-3.4044672-19.20119787l-383.11608-383.11607893c-31.09413653-31.09413653-31.7750304-80.95823787-1.54335894-111.18990933 29.32381333-29.3011168 81.09441707-28.5521344 111.21260694 1.54335786l383.11607893 383.11608a16.9996416 16.9996416 0 0 0 19.2011968 3.4044672 260.78221333 260.78221333 0 0 1 108.98835413-24.03554026c69.01990507 0 133.909056 26.89529387 182.7518176 75.69266133a257.8543712 257.8543712 0 0 1 64.97993707 256.62876267l-148.20781973-148.20781974a16.931552 16.931552 0 0 0-15.72864-4.58468373l-122.58352854 27.21304427a17.02233813 17.02233813 0 0 0-12.91427946 12.91428053l-27.21304427 122.58352747a17.02233813 17.02233813 0 0 0 4.58468267 15.72864l148.18512426 148.1851232a258.19481813 258.19481813 0 0 1-73.9223392 10.7354208z m-556.06302933-880.69035734a66.18284907 66.18284907 0 0 0-46.754688 112.89214294c24.98879147 24.98879147 68.54328 24.98879147 93.50937493 0a66.18284907 66.18284907 0 0 0-46.75468693-112.89214294z m0 98.20754027a32.11547733 32.11547733 0 0 1-22.67375467-54.7665344c12.119904-12.09720747 33.2276032-12.074512 45.3702048 0a32.11547733 32.11547733 0 0 1-22.69645013 54.7665344z"  horiz-adv-x="1024" />

    
    <glyph glyph-name="konggouwuche" unicode="&#59034;" d="M814.796409 72.633608c-54.722893 0-99.307806-45.014912-99.307806-100.320804 0-55.295892 44.584913-100.310804 99.307806-100.310804 54.732893 0 99.317806 45.014912 99.317806 100.310804-0.144 55.295892-44.728913 100.320804-99.317806 100.320804z m0-147.762711a47.410907 47.410907 0 0 0-47.441908 47.441907 47.410907 47.410907 0 0 0 47.441908 47.441907 47.410907 47.410907 0 0 0 47.441907-47.441907 47.513907 47.513907 0 0 0-47.441907-47.441907z m-9.144983 287.078439a283.959445 283.959445 0 0 0-15.28797 0.429999l-395.826227-0.429999s-13.577973 7.289986-13.434973 25.72195c0 17.581966 13.147974 26.009949 13.147974 26.009949h414.68919c44.440913 1.719997 71.58686 4.709991 93.316818 34.866932 6.706987 9.287982 11.713977 20.859959 17.284966 35.296931l53.585895 188.190632c6.859987 33.586934-1.853996 46.448909-11.284978 56.872889-14.724971 16.291968-56.012891 16.434968-56.01289 16.434968H342.528331s-12.860975 7.577985-12.860975 26.439949c0 17.571966 12.860975 24.862951 12.860975 24.862951h563.4349c5.426989-0.429999 56.16589 4.289992 92.312819-30.156941 21.575958-20.58196 27.719946-48.291906 24.289953-78.734846-1.996996-17.715965-59.013885-236.922537-84.019836-271.35947-22.865955-31.723938-55.019893-54.445894-132.894741-54.445894zM342.528331 111.924531c-44.727913 0-58.306886 10.720979-71.74086 27.289947-17.571966 21.871957-19.865961 50.308902-22.855955 63.446876l-89.599825 432.127156c-1.996996 12.430976-15.871969 30.145941-27.862946 37.006928-20.009961 11.284978-103.607798 6.573987-120.176765 7.577985 0 0-10.29098 8.139984-10.29098 24.719952 0 19.004963 10.00398 25.72195 10.00398 25.72195 6.430987 0.562999 16.435968 0.562999 51.015901 0.849998 49.438903 0.143 79.451845 0 110.315784-21.431958 33.432935-23.295955 35.71693-57.016889 40.436921-86.599831l90.879823-430.693159 1.003998-4.709991c1.852996-5.427989 3.993992-9.861981 10.29098-15.43297 7.423986-6.573987 15.28797-8.293984 22.711955-8.569983h1.433998l583.29986 0.143v-51.1599h-573.00888a76.62585 76.62585 0 0 0-5.856989-0.286z m99.307806-39.289923c-54.722893 0-99.307806-45.015912-99.307806-100.321804 0-55.295892 44.584913-100.310804 99.307806-100.310804 54.731893 0 99.316806 45.014912 99.316806 100.310804-0.143 55.295892-44.584913 100.320804-99.316806 100.320804z m0-147.763711a47.410907 47.410907 0 0 0-47.441907 47.441907 47.410907 47.410907 0 0 0 47.441907 47.441907 47.513907 47.513907 0 0 0 47.440907-47.441907 47.513907 47.513907 0 0 0-47.440907-47.441907z m17.151967 808.508421L418.120183 834.69312a22.271957 22.271957 0 0 0 12.287976 28.876943l6.429988 2.559995a22.271957 22.271957 0 0 0 28.866943-12.287976l40.857921-101.314802a22.271957 22.271957 0 0 0-12.287976-28.855943l-6.419988-2.579995a22.271957 22.271957 0 0 0-28.877943 12.287976z m389.529239 0l40.87692 101.313802a22.271957 22.271957 0 0 1-12.287976 28.876943l-6.429988 2.559995A22.271957 22.271957 0 0 1 841.799356 853.842082l-40.85792-101.314802a22.271957 22.271957 0 0 1 12.287976-28.855943l6.286987-2.579995a22.384956 22.384956 0 0 1 29.009944 12.287976z m-216.627577 31.159939V873.850043C631.889766 885.99602 641.893746 896 654.038723 896h6.859986c12.144976 0 22.149957-10.00398 22.149957-22.149957V764.540257a22.261957 22.261957 0 0 0-22.149957-22.149957h-6.859986a22.261957 22.261957 0 0 0-22.149957 22.149957z"  horiz-adv-x="1024" />

    
    <glyph glyph-name="dianshi" unicode="&#58898;" d="M513.252 669.565l-48.5 48.5M513.251 665.565a3.994 3.994 0 0 0-2.829 1.171l-48.5 48.5a4 4 0 0 0 5.657 5.657l48.5-48.5a4 4 0 0 0-2.828-6.828zM507.898 665.22l70.75 70.75M507.898 661.22a4 4 0 0 0-2.829 6.828l70.75 70.75a4 4 0 0 0 5.657-5.657l-70.75-70.75a3.99 3.99 0 0 0-2.828-1.171zM512.066 619.723m-51 0a51 51 0 1 1 102 0 51 51 0 1 1-102 0ZM512.066 564.723c-30.327 0-55 24.673-55 55s24.673 55 55 55 55-24.673 55-55-24.673-55-55-55z m0 102c-25.916 0-47-21.084-47-47s21.084-47 47-47 47 21.084 47 47-21.084 47-47 47zM876.066 126.648h-728c-11.046 0-20 8.954-20 20v472c0 11.046 8.954 20 20 20h728c11.046 0 20-8.954 20-20v-472c0-11.046-8.954-20-20-20zM876.066 122.648h-728c-13.234 0-24 10.766-24 24v472c0 13.233 10.766 24 24 24h728c13.233 0 24-10.767 24-24v-472c0-13.234-10.766-24-24-24z m-728 512c-8.822 0-16-7.178-16-16v-472c0-8.822 7.178-16 16-16h728c8.822 0 16 7.178 16 16v472c0 8.822-7.178 16-16 16h-728zM684.116 190.723H212.115c-11.046 0-20 8.954-20 20V554.724c0 11.046 8.954 20 20 20h472.001c11.046 0 20-8.954 20-20v-344.001c0-11.046-8.954-20-20-20zM684.116 186.723H212.115c-13.234 0-24 10.766-24 24V554.724c0 13.234 10.766 24 24 24h472.001c13.234 0 24-10.766 24-24v-344.002c0-13.233-10.766-23.999-24-23.999zM212.115 570.724c-8.822 0-16-7.178-16-16v-344.002c0-8.822 7.178-16 16-16h472.001c8.822 0 16 7.178 16 16V554.724c0 8.822-7.178 16-16 16H212.115zM799.116 318.685m-29 0a29 29 0 1 1 58 0 29 29 0 1 1-58 0ZM799.116 285.685c-18.196 0-33 14.804-33 33s14.804 33 33 33 33-14.804 33-33-14.804-33-33-33z m0 58c-13.785 0-25-11.215-25-25s11.215-25 25-25 25 11.215 25 25-11.215 25-25 25zM778.421 415.648m-1.972 0a1.972 1.972 0 1 1 3.944 0 1.972 1.972 0 1 1-3.944 0ZM778.421 409.676c-3.293 0-5.972 2.679-5.972 5.972s2.679 5.972 5.972 5.972 5.972-2.679 5.972-5.972-2.679-5.972-5.972-5.972z m0 8c-1.118 0-2.028-0.91-2.028-2.028s0.91-2.028 2.028-2.028c1.119 0 2.028 0.91 2.028 2.028s-0.909 2.028-2.028 2.028zM792.884 415.648m-1.972 0a1.972 1.972 0 1 1 3.944 0 1.972 1.972 0 1 1-3.944 0ZM792.884 409.676c-3.293 0-5.972 2.679-5.972 5.972s2.679 5.972 5.972 5.972 5.972-2.679 5.972-5.972-2.679-5.972-5.972-5.972z m0 8c-1.118 0-2.028-0.91-2.028-2.028s0.91-2.028 2.028-2.028 2.028 0.91 2.028 2.028-0.91 2.028-2.028 2.028zM807.347 415.648m-1.972 0a1.972 1.972 0 1 1 3.944 0 1.972 1.972 0 1 1-3.944 0ZM807.347 409.676c-3.293 0-5.972 2.679-5.972 5.972s2.679 5.972 5.972 5.972 5.972-2.679 5.972-5.972-2.679-5.972-5.972-5.972z m0 8c-1.118 0-2.028-0.91-2.028-2.028s0.91-2.028 2.028-2.028c1.119 0 2.028 0.91 2.028 2.028s-0.909 2.028-2.028 2.028zM821.81 415.648m-1.972 0a1.972 1.972 0 1 1 3.944 0 1.972 1.972 0 1 1-3.944 0ZM821.811 409.676c-3.293 0-5.972 2.679-5.972 5.972s2.679 5.972 5.972 5.972 5.972-2.679 5.972-5.972-2.679-5.972-5.972-5.972z m0 8c-1.119 0-2.028-0.91-2.028-2.028s0.91-2.028 2.028-2.028c1.118 0 2.028 0.91 2.028 2.028s-0.91 2.028-2.028 2.028zM778.421 395.724m-1.972 0a1.972 1.972 0 1 1 3.944 0 1.972 1.972 0 1 1-3.944 0ZM778.421 389.752c-3.293 0-5.972 2.679-5.972 5.972s2.679 5.972 5.972 5.972 5.972-2.679 5.972-5.972-2.679-5.972-5.972-5.972z m0 8a2.03 2.03 0 0 1-2.028-2.028 2.03 2.03 0 0 1 2.028-2.028 2.03 2.03 0 0 1 2.028 2.028 2.03 2.03 0 0 1-2.028 2.028zM792.884 395.724m-1.972 0a1.972 1.972 0 1 1 3.944 0 1.972 1.972 0 1 1-3.944 0ZM792.884 389.752c-3.293 0-5.972 2.679-5.972 5.972s2.679 5.972 5.972 5.972 5.972-2.679 5.972-5.972-2.679-5.972-5.972-5.972z m0 8a2.03 2.03 0 0 1-2.028-2.028c0-1.119 0.91-2.028 2.028-2.028s2.028 0.91 2.028 2.028a2.03 2.03 0 0 1-2.028 2.028zM807.347 395.724m-1.972 0a1.972 1.972 0 1 1 3.944 0 1.972 1.972 0 1 1-3.944 0ZM807.347 389.752c-3.293 0-5.972 2.679-5.972 5.972s2.679 5.972 5.972 5.972 5.972-2.679 5.972-5.972-2.679-5.972-5.972-5.972z m0 8a2.03 2.03 0 0 1-2.028-2.028 2.03 2.03 0 0 1 2.028-2.028 2.03 2.03 0 0 1 2.028 2.028 2.03 2.03 0 0 1-2.028 2.028zM821.81 395.724m-1.972 0a1.972 1.972 0 1 1 3.944 0 1.972 1.972 0 1 1-3.944 0ZM821.811 389.752c-3.293 0-5.972 2.679-5.972 5.972s2.679 5.972 5.972 5.972 5.972-2.679 5.972-5.972-2.679-5.972-5.972-5.972z m0 8a2.03 2.03 0 0 1-2.028-2.028 2.03 2.03 0 0 1 2.028-2.028 2.03 2.03 0 0 1 2.028 2.028 2.03 2.03 0 0 1-2.028 2.028zM778.421 435.724m-1.972 0a1.972 1.972 0 1 1 3.944 0 1.972 1.972 0 1 1-3.944 0ZM778.421 429.752c-3.293 0-5.972 2.679-5.972 5.972s2.679 5.972 5.972 5.972 5.972-2.679 5.972-5.972-2.679-5.972-5.972-5.972z m0 8a2.03 2.03 0 0 1-2.028-2.028 2.03 2.03 0 0 1 2.028-2.028 2.03 2.03 0 0 1 2.028 2.028 2.03 2.03 0 0 1-2.028 2.028zM792.884 435.724m-1.972 0a1.972 1.972 0 1 1 3.944 0 1.972 1.972 0 1 1-3.944 0ZM792.884 429.752c-3.293 0-5.972 2.679-5.972 5.972s2.679 5.972 5.972 5.972 5.972-2.679 5.972-5.972-2.679-5.972-5.972-5.972z m0 8a2.03 2.03 0 0 1-2.028-2.028c0-1.119 0.91-2.028 2.028-2.028s2.028 0.91 2.028 2.028a2.03 2.03 0 0 1-2.028 2.028zM807.347 435.724m-1.972 0a1.972 1.972 0 1 1 3.944 0 1.972 1.972 0 1 1-3.944 0ZM807.347 429.752c-3.293 0-5.972 2.679-5.972 5.972s2.679 5.972 5.972 5.972 5.972-2.679 5.972-5.972-2.679-5.972-5.972-5.972z m0 8a2.03 2.03 0 0 1-2.028-2.028 2.03 2.03 0 0 1 2.028-2.028 2.03 2.03 0 0 1 2.028 2.028 2.03 2.03 0 0 1-2.028 2.028zM821.81 435.724m-1.972 0a1.972 1.972 0 1 1 3.944 0 1.972 1.972 0 1 1-3.944 0ZM821.811 429.752c-3.293 0-5.972 2.679-5.972 5.972s2.679 5.972 5.972 5.972 5.972-2.679 5.972-5.972-2.679-5.972-5.972-5.972z m0 8a2.03 2.03 0 0 1-2.028-2.028 2.03 2.03 0 0 1 2.028-2.028 2.03 2.03 0 0 1 2.028 2.028 2.03 2.03 0 0 1-2.028 2.028zM778.421 455.648m-1.972 0a1.972 1.972 0 1 1 3.944 0 1.972 1.972 0 1 1-3.944 0ZM778.421 449.676c-3.293 0-5.972 2.679-5.972 5.972s2.679 5.972 5.972 5.972 5.972-2.679 5.972-5.972-2.679-5.972-5.972-5.972z m0 8c-1.118 0-2.028-0.91-2.028-2.028s0.91-2.028 2.028-2.028c1.119 0 2.028 0.91 2.028 2.028s-0.909 2.028-2.028 2.028zM792.884 455.648m-1.972 0a1.972 1.972 0 1 1 3.944 0 1.972 1.972 0 1 1-3.944 0ZM792.884 449.676c-3.293 0-5.972 2.679-5.972 5.972s2.679 5.972 5.972 5.972 5.972-2.679 5.972-5.972-2.679-5.972-5.972-5.972z m0 8c-1.118 0-2.028-0.91-2.028-2.028s0.91-2.028 2.028-2.028 2.028 0.91 2.028 2.028-0.91 2.028-2.028 2.028zM807.347 455.648m-1.972 0a1.972 1.972 0 1 1 3.944 0 1.972 1.972 0 1 1-3.944 0ZM807.347 449.676c-3.293 0-5.972 2.679-5.972 5.972s2.679 5.972 5.972 5.972 5.972-2.679 5.972-5.972-2.679-5.972-5.972-5.972z m0 8c-1.118 0-2.028-0.91-2.028-2.028s0.91-2.028 2.028-2.028c1.119 0 2.028 0.91 2.028 2.028s-0.909 2.028-2.028 2.028zM821.81 455.648m-1.972 0a1.972 1.972 0 1 1 3.944 0 1.972 1.972 0 1 1-3.944 0ZM821.811 449.676c-3.293 0-5.972 2.679-5.972 5.972s2.679 5.972 5.972 5.972 5.972-2.679 5.972-5.972-2.679-5.972-5.972-5.972z m0 8c-1.119 0-2.028-0.91-2.028-2.028s0.91-2.028 2.028-2.028c1.118 0 2.028 0.91 2.028 2.028s-0.91 2.028-2.028 2.028zM778.421 475.648m-1.972 0a1.972 1.972 0 1 1 3.944 0 1.972 1.972 0 1 1-3.944 0ZM778.421 469.676c-3.293 0-5.972 2.679-5.972 5.972s2.679 5.972 5.972 5.972 5.972-2.679 5.972-5.972-2.679-5.972-5.972-5.972z m0 8c-1.118 0-2.028-0.91-2.028-2.028s0.91-2.028 2.028-2.028c1.119 0 2.028 0.91 2.028 2.028s-0.909 2.028-2.028 2.028zM792.884 475.648m-1.972 0a1.972 1.972 0 1 1 3.944 0 1.972 1.972 0 1 1-3.944 0ZM792.884 469.676c-3.293 0-5.972 2.679-5.972 5.972s2.679 5.972 5.972 5.972 5.972-2.679 5.972-5.972-2.679-5.972-5.972-5.972z m0 8c-1.118 0-2.028-0.91-2.028-2.028s0.91-2.028 2.028-2.028 2.028 0.91 2.028 2.028-0.91 2.028-2.028 2.028zM807.347 475.648m-1.972 0a1.972 1.972 0 1 1 3.944 0 1.972 1.972 0 1 1-3.944 0ZM807.347 469.676c-3.293 0-5.972 2.679-5.972 5.972s2.679 5.972 5.972 5.972 5.972-2.679 5.972-5.972-2.679-5.972-5.972-5.972z m0 8c-1.118 0-2.028-0.91-2.028-2.028s0.91-2.028 2.028-2.028c1.119 0 2.028 0.91 2.028 2.028s-0.909 2.028-2.028 2.028zM821.81 475.648m-1.972 0a1.972 1.972 0 1 1 3.944 0 1.972 1.972 0 1 1-3.944 0ZM821.811 469.676c-3.293 0-5.972 2.679-5.972 5.972s2.679 5.972 5.972 5.972 5.972-2.679 5.972-5.972-2.679-5.972-5.972-5.972z m0 8c-1.119 0-2.028-0.91-2.028-2.028s0.91-2.028 2.028-2.028c1.118 0 2.028 0.91 2.028 2.028s-0.91 2.028-2.028 2.028zM778.421 495.648m-1.972 0a1.972 1.972 0 1 1 3.944 0 1.972 1.972 0 1 1-3.944 0ZM778.421 489.676c-3.293 0-5.972 2.679-5.972 5.972s2.679 5.972 5.972 5.972 5.972-2.679 5.972-5.972-2.679-5.972-5.972-5.972z m0 8c-1.118 0-2.028-0.91-2.028-2.028s0.91-2.028 2.028-2.028c1.119 0 2.028 0.91 2.028 2.028s-0.909 2.028-2.028 2.028zM792.884 495.648m-1.972 0a1.972 1.972 0 1 1 3.944 0 1.972 1.972 0 1 1-3.944 0ZM792.884 489.676c-3.293 0-5.972 2.679-5.972 5.972s2.679 5.972 5.972 5.972 5.972-2.679 5.972-5.972-2.679-5.972-5.972-5.972z m0 8c-1.118 0-2.028-0.91-2.028-2.028s0.91-2.028 2.028-2.028 2.028 0.91 2.028 2.028-0.91 2.028-2.028 2.028zM807.347 495.648m-1.972 0a1.972 1.972 0 1 1 3.944 0 1.972 1.972 0 1 1-3.944 0ZM807.347 489.676c-3.293 0-5.972 2.679-5.972 5.972s2.679 5.972 5.972 5.972 5.972-2.679 5.972-5.972-2.679-5.972-5.972-5.972z m0 8c-1.118 0-2.028-0.91-2.028-2.028s0.91-2.028 2.028-2.028c1.119 0 2.028 0.91 2.028 2.028s-0.909 2.028-2.028 2.028zM821.81 495.648m-1.972 0a1.972 1.972 0 1 1 3.944 0 1.972 1.972 0 1 1-3.944 0ZM821.811 489.676c-3.293 0-5.972 2.679-5.972 5.972s2.679 5.972 5.972 5.972 5.972-2.679 5.972-5.972-2.679-5.972-5.972-5.972z m0 8c-1.119 0-2.028-0.91-2.028-2.028s0.91-2.028 2.028-2.028c1.118 0 2.028 0.91 2.028 2.028s-0.91 2.028-2.028 2.028zM778.421 515.648m-1.972 0a1.972 1.972 0 1 1 3.944 0 1.972 1.972 0 1 1-3.944 0ZM778.421 509.676c-3.293 0-5.972 2.679-5.972 5.972s2.679 5.972 5.972 5.972 5.972-2.679 5.972-5.972-2.679-5.972-5.972-5.972z m0 8c-1.118 0-2.028-0.91-2.028-2.028s0.91-2.028 2.028-2.028c1.119 0 2.028 0.91 2.028 2.028s-0.909 2.028-2.028 2.028zM792.884 515.648m-1.972 0a1.972 1.972 0 1 1 3.944 0 1.972 1.972 0 1 1-3.944 0ZM792.884 509.676c-3.293 0-5.972 2.679-5.972 5.972s2.679 5.972 5.972 5.972 5.972-2.679 5.972-5.972-2.679-5.972-5.972-5.972z m0 8c-1.118 0-2.028-0.91-2.028-2.028s0.91-2.028 2.028-2.028 2.028 0.91 2.028 2.028-0.91 2.028-2.028 2.028zM807.347 515.648m-1.972 0a1.972 1.972 0 1 1 3.944 0 1.972 1.972 0 1 1-3.944 0ZM807.347 509.676c-3.293 0-5.972 2.679-5.972 5.972s2.679 5.972 5.972 5.972 5.972-2.679 5.972-5.972-2.679-5.972-5.972-5.972z m0 8c-1.118 0-2.028-0.91-2.028-2.028s0.91-2.028 2.028-2.028c1.119 0 2.028 0.91 2.028 2.028s-0.909 2.028-2.028 2.028zM821.81 515.648m-1.972 0a1.972 1.972 0 1 1 3.944 0 1.972 1.972 0 1 1-3.944 0ZM821.811 509.676c-3.293 0-5.972 2.679-5.972 5.972s2.679 5.972 5.972 5.972 5.972-2.679 5.972-5.972-2.679-5.972-5.972-5.972z m0 8c-1.119 0-2.028-0.91-2.028-2.028s0.91-2.028 2.028-2.028c1.118 0 2.028 0.91 2.028 2.028s-0.91 2.028-2.028 2.028zM778.421 535.648m-1.972 0a1.972 1.972 0 1 1 3.944 0 1.972 1.972 0 1 1-3.944 0ZM778.421 529.676c-3.293 0-5.972 2.679-5.972 5.972s2.679 5.972 5.972 5.972 5.972-2.679 5.972-5.972-2.679-5.972-5.972-5.972z m0 8c-1.118 0-2.028-0.91-2.028-2.028s0.91-2.028 2.028-2.028c1.119 0 2.028 0.91 2.028 2.028s-0.909 2.028-2.028 2.028zM792.884 535.648m-1.972 0a1.972 1.972 0 1 1 3.944 0 1.972 1.972 0 1 1-3.944 0ZM792.884 529.676c-3.293 0-5.972 2.679-5.972 5.972s2.679 5.972 5.972 5.972 5.972-2.679 5.972-5.972-2.679-5.972-5.972-5.972z m0 8c-1.118 0-2.028-0.91-2.028-2.028s0.91-2.028 2.028-2.028 2.028 0.91 2.028 2.028-0.91 2.028-2.028 2.028zM807.347 535.648m-1.972 0a1.972 1.972 0 1 1 3.944 0 1.972 1.972 0 1 1-3.944 0ZM807.347 529.676c-3.293 0-5.972 2.679-5.972 5.972s2.679 5.972 5.972 5.972 5.972-2.679 5.972-5.972-2.679-5.972-5.972-5.972z m0 8c-1.118 0-2.028-0.91-2.028-2.028s0.91-2.028 2.028-2.028c1.119 0 2.028 0.91 2.028 2.028s-0.909 2.028-2.028 2.028zM821.81 535.648m-1.972 0a1.972 1.972 0 1 1 3.944 0 1.972 1.972 0 1 1-3.944 0ZM821.811 529.676c-3.293 0-5.972 2.679-5.972 5.972s2.679 5.972 5.972 5.972 5.972-2.679 5.972-5.972-2.679-5.972-5.972-5.972z m0 8c-1.119 0-2.028-0.91-2.028-2.028s0.91-2.028 2.028-2.028c1.118 0 2.028 0.91 2.028 2.028s-0.91 2.028-2.028 2.028zM245.518 432.224a4 4 0 0 0-2.829 6.828l63.25 63.25a4 4 0 0 0 5.657-5.657l-63.25-63.25a3.99 3.99 0 0 0-2.828-1.171zM252.518 355.724a4 4 0 0 0-2.829 6.828l134 134a4 4 0 0 0 5.657-5.657l-134-134a3.99 3.99 0 0 0-2.828-1.171zM256.115 62.724h128.001M384.116 58.724H256.115a4 4 0 0 0 0 8h128.001a4 4 0 0 0 0-8zM640.017 62.724h128.001M768.018 58.724H640.017a4 4 0 0 0 0 8h128.001a4 4 0 0 0 0-8z"  horiz-adv-x="1024" />

    
    <glyph glyph-name="msnui-notebook" unicode="&#58889;" d="M860.461 279.178h-695.944v415.021q0 41.111 20.555 63.134t62.645 22.024h533.459q44.047 0 62.155-24.96t17.129-64.113v-411.106zM788.028 710.8389999999999h-554.014v-309.308l554.014-0.979v310.287zM560.941 339.865q0 13.704-18.598 15.661h-59.708q-18.598 0-18.598-15.661 0-4.894 4.894-9.788t12.725-5.873l58.729 0.979q8.809 0 14.682 4.894t5.873 9.788zM843.821 223.385q10.767 0 14.682-6.852t11.746-19.576q3.915-6.852 14.682-24.471t23.002-37.685 23.002-37.685 14.682-23.492q7.831-12.725 13.214-23.981t-7.341-26.918q-25.449-30.344-44.047-37.195t-28.386-6.852h-502.136q-64.602 0-115.991 0.489t-83.689 0.489h-37.195q-7.831 0-16.151 3.915t-17.129 10.278-16.151 13.704-13.214 14.193q-6.852 8.809-8.809 15.661t-0.489 12.235 5.384 10.278 7.831 11.746q3.915 5.873 13.214 21.045t20.066 33.769l23.492 37.195q10.767 18.598 18.598 31.322t13.214 19.087 11.256 8.32 12.725 1.468 17.619-0.489h632.32zM891.784 42.303q0 6.852-5.873 11.256t-12.725 4.405h-714.541q-6.852 0-13.704-4.405t-6.852-11.256 5.873-11.746 12.725-4.894h715.52q6.852 0 13.214 4.894t6.362 11.746z"  horiz-adv-x="1024" />

    
    <glyph glyph-name="shoujiqia" unicode="&#58979;" d="M828.64 896H435.088L96 614.368v-654.272C96-88.08 141.856-128 190.48-128H828.64c49.584 0 83.36 41.488 83.36 91.04V805.552C912 855.152 878.24 896 828.64 896zM848-24.464V-64H172.976l0.56 654.272L470.48 816H848v-840.464zM704 680.56c0 12.944-10.48 23.44-23.424 23.44h-17.152c-12.944 0-23.424-10.496-23.424-23.44v-225.12c0-12.944 10.48-23.44 23.424-23.44h17.152c12.944 0 23.424 10.496 23.424 23.44v225.12zM608 680.56c0 12.944-10.496 23.44-23.44 23.44h-17.12c-12.944 0-23.44-10.496-23.44-23.44v-225.12c0-12.944 10.496-23.44 23.44-23.44h17.12c12.944 0 23.44 10.496 23.44 23.44v225.12zM512 680.56c0 12.944-10.496 23.44-23.44 23.44h-17.12c-12.944 0-23.44-10.496-23.44-23.44v-225.12c0-12.944 10.496-23.44 23.44-23.44h17.12c12.944 0 23.44 10.496 23.44 23.44v225.12z"  horiz-adv-x="1024" />

    
    <glyph glyph-name="xiyiji2" unicode="&#58960;" d="M157 810.2h709v-843H157zM229 792.2c-33.1 0-60-26.9-60-60v-696c0-33.1 26.9-60 60-60h568c33.1 0 60 26.9 60 60v696c0 33.1-26.9 60-60 60H229z m0 40h568c55.2 0 100-44.8 100-100v-696c0-55.2-44.8-100-100-100H229c-55.2 0-100 44.8-100 100v696c0 55.2 44.8 100 100 100zM513 290.20000000000005m-222 0a222 222 0 1 1 444 0 222 222 0 1 1-444 0ZM513 45.700000000000045c-137.2 0-248.5 111.3-248.5 248.5S375.8 542.7 513 542.7s248.5-111.3 248.5-248.5S650.2 45.700000000000045 513 45.700000000000045z m0 35c117.9 0 213.5 95.6 213.5 213.5S630.9 507.7 513 507.7s-213.5-95.6-213.5-213.5S395.1 80.70000000000005 513 80.70000000000005zM513 290.20000000000005m-163 0a163 163 0 1 1 326 0 163 163 0 1 1-326 0ZM513.5 122.70000000000005c-94.4 0-171 76.6-171 171s76.6 171 171 171 171-76.6 171-171-76.6-171-171-171z m0 35c75.1 0 136 60.9 136 136s-60.9 136-136 136-136-60.9-136-136 60.9-136 136-136zM685.2 295.20000000000005h0.8l-0.4-5.5 0.4-5.5h-0.8l-3.2-47-46 32v41l46 32 3.2-47zM433 806.2h168v-78c0-46.4-37.6-84-84-84s-84 37.6-84 84v78zM441 793.2v-64.5c0-40 32.5-72.5 72.5-72.5s72.5 32.5 72.5 72.5v64.5H441z m175 30v-94.5c0-56.6-45.9-102.5-102.5-102.5S411 672.1 411 728.7V823.2h205zM514 729.2m-37 0a37 37 0 1 1 74 0 37 37 0 1 1-74 0ZM262 756.2h58c24.3 0 44-19.7 44-44s-19.7-44-44-44h-58c-24.3 0-44 19.7-44 44s19.7 44 44 44zM251 743.7c-18.5 0-33.5-15-33.5-33.5s15-33.5 33.5-33.5h76c18.5 0 33.5 15 33.5 33.5s-15 33.5-33.5 33.5h-76z m0 25h76c32.3 0 58.5-26.2 58.5-58.5s-26.2-58.5-58.5-58.5h-76c-32.3 0-58.5 26.2-58.5 58.5s26.2 58.5 58.5 58.5zM169.5 575.2c-9.7 0-17.5 7.8-17.5 17.5s7.8 17.5 17.5 17.5H635c9.7 0 17.5-7.8 17.5-17.5s-7.8-17.5-17.5-17.5H169.5z m601.5 0c-9.7 0-17.5 7.8-17.5 17.5s7.8 17.5 17.5 17.5h95.6c9.7 0 17.5-7.8 17.5-17.5s-7.8-17.5-17.5-17.5H771zM701.5 591.7m-22.5 0a22.5 22.5 0 1 1 45 0 22.5 22.5 0 1 1-45 0ZM784 705.7c0-24.8-19.7-44.5-44.5-44.5S695 680.9 695 705.7s19.7 44.5 44.5 44.5 44.5-19.7 44.5-44.5M739 649.2c-31.7 0-57 25.1-57 56.5s25.3 56.5 57 56.5 57-25.1 57-56.5-25.3-56.5-57-56.5z m0 87.9c-17.7 0-31.7-13.8-31.7-31.4s13.9-31.4 31.7-31.4 31.7 13.8 31.7 31.4-14 31.4-31.7 31.4zM727 705.2c0-2.8-2.2-5-5-5s-5 2.2-5 5c0 12.8 10.2 23 23 23s23-10.2 23-23c0-2.8-2.2-5-5-5s-5 2.2-5 5c0 7.3-5.7 13-13 13s-13-5.7-13-13zM672.5-0.2999999999999545c-9.7 0-17.5 7.8-17.5 17.5s7.8 17.5 17.5 17.5h103c9.7 0 17.5-7.8 17.5-17.5s-7.8-17.5-17.5-17.5h-103zM459.4 213.79999999999995c-4.9-4.9-12.8-4.9-17.7 0-4.9 4.9-4.9 12.8 0 17.7l125.8 125.8c4.9 4.9 12.8 4.9 17.7 0 4.9-4.9 4.9-12.8 0-17.7L459.4 213.79999999999995zM430.7 265.70000000000005c-4.9-4.9-12.8-4.9-17.7 0s-4.9 12.8 0 17.7l92.2 92.2c4.9 4.9 12.8 4.9 17.7 0 4.9-4.9 4.9-12.8 0-17.7l-92.2-92.2zM540.9 218.29999999999995c-4.9-4.9-12.8-4.9-17.7 0-4.9 4.9-4.9 12.8 0 17.7l69.1 69.1c4.9 4.9 12.8 4.9 17.7 0s4.9-12.8 0-17.7l-69.1-69.1zM275 697.7c-6.9 0-12.5 5.6-12.5 12.5s5.6 12.5 12.5 12.5h28.5c6.9 0 12.5-5.6 12.5-12.5s-5.6-12.5-12.5-12.5H275z"  horiz-adv-x="1024" />

    
    <glyph glyph-name="shijian1" unicode="&#58880;" d="M512-71.11111100000005c-129.194667 2.958222-236.600889 47.246222-322.218667 132.892444C104.163556 147.39911099999995 59.847111 254.80533300000002 56.888889 384c2.958222 129.194667 47.246222 236.600889 132.892444 322.218667C275.399111 791.836444 382.805333 836.152889 512 839.111111c129.194667-2.958222 236.600889-47.246222 322.218667-132.892444C919.836444 620.600889 964.152889 513.194667 967.111111 384c-2.958222-129.194667-47.246222-236.600889-132.892444-322.218667C748.600889-23.83644400000003 641.194667-68.15288899999996 512-71.11111100000005z m281.998222 173.112889c75.093333 75.093333 113.607111 168.504889 116.252445 280.689778-2.645333 114.801778-41.159111 208.213333-116.252445 283.306666-75.093333 75.093333-168.504889 113.607111-280.689778 116.252445-114.801778-2.645333-208.213333-41.159111-283.306666-116.252445-75.093333-75.093333-113.607111-168.504889-116.252445-280.689778 2.645333-114.801778 41.159111-208.213333 116.252445-283.306666 74.808889-74.808889 167.793778-113.322667 281.998222-116.195556 114.204444 2.872889 207.189333 41.386667 281.998222 116.195556zM512 384h199.111111a28.444444 28.444444 0 0 0 0-56.888889h-227.555555a28.444444 28.444444 0 0 0-28.444445 28.444445V640a28.444444 28.444444 0 0 0 56.888889 0v-256z"  horiz-adv-x="1024" />

    
    <glyph glyph-name="gouwudai" unicode="&#58899;" d="M248.67529297 762.64195964h512.84970703c52.65 0 96.3-40.80058594 99.74970703-93.30029297l36.75058594-550.05029297A99.97558594 99.97558594 0 0 0 798.27470703 12.642252610000014h-586.27441406A99.97558594 99.97558594 0 0 0 112.24970703 119.29137370000001l36.675 550.05029297c3.45058594 52.49970703 47.10058594 93.30029297 99.75058594 93.30029297z m454.275-199.95029297a37.50029297 37.50029297 0 1 1-70.72558594 0H630.125a125.02441406 125.02441406 0 1 0-250.04970703 0h-2.10058594a37.50029297 37.50029297 0 1 1-70.72470703 0h-2.25a200.025 200.025 0 1 1 400.05 0h-2.17529297z"  horiz-adv-x="1024" />

    
    <glyph glyph-name="zhineng" unicode="&#59002;" d="M499.98019 515.559619c24.673524 0 44.763429-19.992381 44.763429-44.763429v-344.33219a44.739048 44.739048 0 1 0-89.502476 0V470.893714c0 24.673524 20.089905 44.665905 44.739047 44.665905zM175.323429 888.58819a44.690286 44.690286 0 0 0 61.342476-15.067428l119.881143-198.144a44.690286 44.690286 0 0 0-76.409905-46.299429L160.158476 827.245714A44.641524 44.641524 0 0 0 175.299048 888.58819z m644.315428 0A44.690286 44.690286 0 0 1 758.247619 873.520762L632.198095 665.209905a44.690286 44.690286 0 0 1 76.409905-46.275048l126.098286 208.286476a44.714667 44.714667 0 0 1-15.067429 61.366857zM834.145524 566.857143l-69.193143-55.466667-0.780191-1.194666a335.384381 335.384381 0 0 0 73.581715-210.16381c0-186.12419-150.869333-336.993524-336.993524-336.993524-186.148571-0.097524-337.017905 150.869333-337.017905 337.017905 0 186.12419 150.869333 336.993524 337.017905 336.993524 52.711619 0 102.619429-12.117333 146.944-33.621334l49.980952 75.654096a425.22819 425.22819 0 0 1-196.924952 48.030476C264.850286 727.113143 73.679238 535.966476 73.679238 300.056381c0-235.910095 191.146667-427.081143 427.081143-427.081143 235.910095 0 427.056762 191.146667 427.056762 427.081143A425.20381 425.20381 0 0 1 834.145524 566.857143zM754.127238 539.233524a44.641524 44.641524 0 1 1 89.307429 0 44.641524 44.641524 0 0 1-89.307429 0z"  horiz-adv-x="1024" />

    
    <glyph glyph-name="jiaohuan" unicode="&#58922;" d="M512 384m-512 0a512 512 0 1 1 1024 0 512 512 0 1 1-1024 0ZM444.964571 548.571429H658.285714v-82.285715l128 123.428572L658.285714 713.142857v-82.285714h-213.321143C280.027429 630.857143 146.285714 501.906286 146.285714 342.857143h85.321143c0 113.627429 95.524571 205.714286 213.357714 205.714286z m384-123.428572a202.057143 202.057143 0 0 0-62.500571-145.444571 217.417143 217.417143 0 0 0-150.857143-60.269715H402.285714v82.285715l-128-123.428572L402.285714 54.857143v82.285714h213.321143c164.937143 0 298.678857 128.950857 298.678857 288h-85.321143z"  horiz-adv-x="1024" />

    
    <glyph glyph-name="shouji" unicode="&#59080;" d="M94.332171 882.509461m55.715928 0l666.365193 0q55.715928 0 55.715928-55.715928l0-885.586459q0-55.715928-55.715928-55.715928l-666.365193 0q-55.715928 0-55.715928 55.715928l0 885.586459q0 55.715928 55.715928 55.715928ZM826.463744 881.565123v-995.129639a55.78338 55.78338 0 0 1 45.732929 54.77159V826.793533a55.78338 55.78338 0 0 1-45.732929 54.77159zM140.0651 881.565123v-995.129639a55.78338 55.78338 0 0 0-45.732929 54.77159V826.793533a55.78338 55.78338 0 0 0 45.732929 54.77159zM813.85009-127.999393H147.484896A69.27392 69.27392 0 0 0 78.278429-58.792926V538.028537a13.490539 13.490539 0 0 0 26.981079 0v-596.821463a42.292841 42.292841 0 0 1 42.225388-42.225388h666.365194a42.292841 42.292841 0 0 1 42.225388 42.225388V826.793533A42.292841 42.292841 0 0 1 813.85009 869.018921H147.484896A42.292841 42.292841 0 0 1 105.259508 826.793533v-60.707427a13.490539 13.490539 0 0 0-26.981079 0v60.707427A69.27392 69.27392 0 0 0 147.484896 896h666.365194a69.27392 69.27392 0 0 0 69.206467-69.206467v-885.586459a69.27392 69.27392 0 0 0-69.206467-69.206467zM91.768968 600.557187a13.490539 13.490539 0 0 0-13.490539 13.49054V690.066916a13.490539 13.490539 0 0 0 26.981079 0V614.047727a13.490539 13.490539 0 0 0-13.49054-13.49054zM91.768968 94.729413h777.797049v-161.886473a47.216888 47.216888 0 0 0-47.216887-47.216888H138.985856a47.216888 47.216888 0 0 0-47.216888 47.216888v161.886473zM832.601939 94.729413v-161.886473a47.216888 47.216888 0 0 0-47.216887-47.216888H820.258096a47.216888 47.216888 0 0 1 47.216888 47.216888v161.886473zM822.079319-127.999393H138.985856a60.707427 60.707427 0 0 0-60.707427 60.707427v175.377013h804.778128v-175.377013a60.707427 60.707427 0 0 0-60.977238-60.707427zM105.259508 81.238873v-148.395933a33.726348 33.726348 0 0 1 33.726348-33.726349h683.093463a33.726348 33.726348 0 0 1 33.726348 33.726349v148.395933zM480.701219-9.889721m-62.798461 0a62.798461 62.798461 0 1 1 125.596922 0 62.798461 62.798461 0 1 1-125.596922 0ZM480.701219-86.178721A76.289 76.289 0 1 0 557.192578-9.889721a76.356453 76.356453 0 0 0-76.491359-76.289z m0 125.596922A49.307921 49.307921 0 1 1 530.211499-9.889721a49.375374 49.375374 0 0 1-49.51028 49.240469z"  horiz-adv-x="1024" />

    
    <glyph glyph-name="yonghuqunti" unicode="&#60407;" d="M1046.836865 325.204534c-68.321341 31.101035-199.475604 24.918679-261.677673 0a352.646624 352.646624 0 0 1-40.942336-21.007393 527.203549 527.203549 0 0 0 177.521932-351.258748h299.718087a11.86003 11.86003 0 0 1 1.955643 0h1.703303v0.315427c19.808773 2.018728 35.390833 20.691966 35.390833 43.591917a355.170034 355.170034 0 0 1-213.669789 328.358797z m-478.817151-7.128635c-82.010843 37.094135-238.083785 29.83933-312.398226 0C105.667817 254.296698 0 102.071957 0-75.38689c0-28.072942 19.367176-50.468211 44.159685-52.360769H780.995564c23.720059 2.460325 42.267127 24.792509 42.267127 52.234598 0 177.458847-105.604731 329.683588-255.369147 393.46279zM404.187284 408.603253c138.093642 0 250.13307 109.074421 250.133071 243.698373S542.154756 896 404.187284 896 154.054214 786.862494 154.054214 652.301626s111.976343-243.698374 250.13307-243.698373z m505.502218-0.378512c115.319862 0 208.749138 90.96895 208.749138 203.38689s-93.429276 203.38689-208.749138 203.38689-208.812223-91.032035-208.812223-203.38689 93.618531-203.38689 208.812223-203.38689z"  horiz-adv-x="1260" />

    
    <glyph glyph-name="logo" unicode="&#58926;" d="M1316.451216 478.467659a361.612867 361.612867 0 0 1-185.713744 101.501773A430.346723 430.346723 0 0 1 714.773974 895.998661a43.677428 43.677428 0 0 0-11.705078 0 430.346723 430.346723 0 0 1-415.963498-316.044982 361.612867 361.612867 0 0 1-185.713744-101.501774A355.004145 355.004145 0 0 1 0.000158 229.691429 359.446718 359.446718 0 0 1 360.37635-127.99874h206.374861c0.732552 0 1.441473 0.070892 2.166149 0.1024s1.44935-0.1024 2.158271-0.1024a47.261418 47.261418 0 0 1 47.43471 47.08025V196.001915l210.951342 261.914904-26.521533-279.19683-90.16691 34.343298a47.560741 47.560741 0 0 1-61.282305-27.08867 46.985727 46.985727 0 0 1 27.293469-60.833322l148.519007-56.564041a47.734033 47.734033 0 0 1 41.999648 3.938451 47.048742 47.048742 0 0 1 22.220743 35.595725l47.30868 497.930552v0.196922a46.607636 46.607636 0 0 1 0.149661 5.742263c0 0.472614-0.063015 0.937351-0.094523 1.409965q-0.141784 2.244917-0.496245 4.466204c-0.078769 0.480491-0.141784 0.953105-0.22843 1.42572a45.772684 45.772684 0 0 1-1.386335 5.513832l-0.157538 0.425353a46.127144 46.127144 0 0 1-1.969225 4.923064c-0.181169 0.385968-0.362338 0.78769-0.551384 1.150028a44.299703 44.299703 0 0 1-2.496978 4.411066c-0.12603 0.204799-0.244184 0.417476-0.378091 0.622275a46.473728 46.473728 0 0 1-3.528853 4.663127c-0.22843 0.267815-0.488368 0.519876-0.724675 0.78769q-1.575381 1.709288-3.284669 3.308299c-0.441107 0.401722-0.89009 0.78769-1.354827 1.189413s-0.716798 0.669537-1.110643 0.976736c-0.834952 0.66166-1.709288 1.236674-2.567871 1.835318-0.259938 0.181169-0.480491 0.393845-0.740429 0.567137-0.086646 0.055138-0.173292 0.086646-0.25206 0.141784a46.686405 46.686405 0 0 1-5.127864 2.906577c-0.299322 0.149661-0.606522 0.267815-0.905844 0.409599a46.040499 46.040499 0 0 1-4.607989 1.843196c-0.409599 0.141784-0.78769 0.283569-1.220919 0.409599a47.608002 47.608002 0 0 1-5.568971 1.402088 47.198403 47.198403 0 0 1-5.758016 0.66166c-0.464737 0-0.921598 0-1.394212 0.047262-1.496612 0.047261-2.985346 0-4.474081-0.070892-0.488368 0-0.968859-0.047261-1.457227-0.094523a47.355941 47.355941 0 0 1-5.561094-0.834952c-0.291445-0.063015-0.582891-0.157538-0.874336-0.22843a47.41108 47.41108 0 0 1-4.726142-1.370581c-0.472614-0.165415-0.937351-0.33083-1.402088-0.511999a47.395326 47.395326 0 0 1-5.017588-2.221287c-0.078769 0-0.157538-0.063015-0.236307-0.110276l-0.149661-0.078769-0.307199-0.157538-573.060453-302.599109a46.946342 46.946342 0 0 1 5.56897-85.637691l128.740104-48.049108a47.544987 47.544987 0 0 1 61.109014 27.482515 46.97785 46.97785 0 0 1-27.687314 60.652153l-30.491492 11.390002 278.133448 146.872735L534.054186 241.916383a46.891204 46.891204 0 0 1-10.381758-29.404479v-246.342267h-163.288201A264.813605 264.813605 0 0 0 94.885332 229.691429a261.64709 261.64709 0 0 0 74.75181 183.350673 266.593785 266.593785 0 0 0 161.783713 78.674508 47.261418 47.261418 0 0 1 41.440387 38.171473 335.193734 335.193734 0 0 0 330.215531 271.957955 43.677428 43.677428 0 0 0 11.705078 0 335.193734 335.193734 0 0 0 330.215531-271.957955l6.443306-34.343298 34.997081-3.828175a266.593785 266.593785 0 0 0 161.783712-78.674508 261.64709 261.64709 0 0 0 74.751811-183.350673 264.813605 264.813605 0 0 0-265.498896-263.521792h-206.37486a47.088127 47.088127 0 1 1 0-94.168377h206.37486A359.446718 359.446718 0 0 1 1417.842712 229.691429a355.004145 355.004145 0 0 1-101.391496 248.77623z"  horiz-adv-x="1417" />

    
    <glyph glyph-name="yonghu" unicode="&#58884;" d="M1010.503-85.494l-113.33 0c0 17.913-32.342 92.139-112.398 169.553-49.414 47.786-150.678 127.948-273.662 127.948s-224.246-80.162-273.662-127.948c-80.055-77.415-112.396-151.641-112.396-169.553l-113.33 0c0 41.632 23.308 89.234 42.86 121.836 26.654 44.443 62.644 89.111 104.083 129.183 61.721 59.685 189.582 159.81 352.444 159.81 162.864 0 290.725-100.125 352.444-159.81 41.439-40.073 77.428-84.74 104.083-129.183 19.553-32.602 42.859-80.202 42.859-121.836zM511.113 212.005c-86.089 0-167.026 33.521-227.899 94.396-60.875 60.873-94.4 141.806-94.4 227.891s33.524 167.02 94.4 227.891 141.812 94.396 227.899 94.396 167.026-33.521 227.899-94.396c60.875-60.873 94.4-141.806 94.4-227.891s-33.524-167.02-94.4-227.891c-60.875-60.873-141.811-94.396-227.899-94.396zM511.113 743.253c-115.227 0-208.969-93.738-208.969-208.961s93.743-208.961 208.969-208.961 208.97 93.738 208.97 208.961-93.743 208.961-208.97 208.961z"  horiz-adv-x="1024" />

    
    <glyph glyph-name="zuo" unicode="&#58886;" d="M654.78703 32.582461 376.938931 310.43056l277.848099 277.848099-46.302559 46.302559L284.333814 310.43056l324.150658-324.150658L654.78703 32.582461z"  horiz-adv-x="1024" />

    
    <glyph glyph-name="demo01" unicode="&#58881;" d="M960-151.776c-8.192 0-16.384 3.136-22.656 9.344l-161.408 161.408c-12.032 12.032-12.544 31.36-1.152 44.032 61.44 68.288 95.296 156.48 95.296 248.384 0 204.736-166.592 371.264-371.264 371.264S127.616 516.192 127.616 311.456s166.528-371.264 371.264-371.264c54.144 0 106.304 11.392 155.072 33.792 16 7.424 35.072 0.32 42.432-15.68 7.424-16.064 0.384-35.072-15.68-42.432-57.216-26.368-118.4-39.68-181.824-39.68-240 0-435.264 195.264-435.264 435.264S258.816 746.72 498.816 746.72s435.264-195.264 435.264-435.264c0-97.536-32.512-191.616-92.16-267.904l140.672-140.672c12.48-12.48 12.48-32.768 0-45.248C976.384-148.64 968.192-151.776 960-151.776z"  horiz-adv-x="1024" />

    
    <glyph glyph-name="QQ" unicode="&#58925;" d="M512 384m-448 0a448 448 0 1 1 896 0 448 448 0 1 1-896 0ZM326.988 438.511c-2.675-7.064 1.243-11.537 0-38.438-0.336-7.237-31.537-39.988-43.919-74.005-12.284-33.743-13.974-68.997 4.992-82.853 18.963-13.853 36.617 46.118 38.927 37.394a127.703 127.703 0 0 1 3.772-11.837c6.069-16.346 16.261-34.438 31.035-51.355 3.002-3.436-18.278-9.755-31.035-31.456-12.757-21.697 3.654-61.15 67.094-61.15 81.848 0 100.143 28.774 101.81 28.65 6.095-0.46 6.516 0 12.976 0 7.906 0 4.633-0.636 11.977 0 3.967 0.343 43.747-34.441 98.815-28.65 93.826 9.863 79.48 41.306 72.113 61.15-7.684 20.715-34.865 30.418-33.665 31.746 22.477 24.839 26.036 40.089 33.665 62.902 3.139 9.377 24.911-51.597 41.678-37.394 6.985 5.919 20.96 30.578 6.985 82.853-13.974 52.279-40.993 64.2-40.405 74.005 1.224 20.402 0.512 34.728-0.519 38.438-4.989 17.971-15.423 14.004-15.423 17.971 0 103.477-77.812 187.358-173.798 187.358-95.989 0-173.798-83.881-173.798-187.358-0.001-8.212-7.29-2.144-13.277-17.971z"  horiz-adv-x="1024" />

    
    <glyph glyph-name="you" unicode="&#58924;" d="M338.017251-128a31.96777 31.96777 0 0 0-22.623838 54.623607L772.734126 383.99632 315.361413 841.369033A31.96777 31.96777 0 1 0 360.609088 886.616707l479.99655-479.99655a31.96777 31.96777 0 0 0 0-45.247674l-479.99655-479.99655a31.903771 31.903771 0 0 0-22.591837-9.375933z"  horiz-adv-x="1024" />

    
    <glyph glyph-name="weixin" unicode="&#58892;" d="M504.9 484.4c15.9 0 26.5 10.6 26.5 26.5s-10.5 26.4-26.5 26.4c-15.8 0-31.7-10.5-31.7-26.4 0-15.9 15.9-26.5 31.7-26.5zM573.7 383.9c-10.5 0-21.1-10.6-21.1-21.1 0-10.7 10.6-21.1 21.1-21.1 16 0 26.5 10.5 26.5 21.1-0.1 10.5-10.6 21.1-26.5 21.1zM356.9 537.3c-15.8 0-31.8-10.5-31.8-26.4 0-15.9 16-26.5 31.8-26.5s26.4 10.6 26.4 26.5-10.5 26.4-26.4 26.4zM689.9 383.9c-10.5 0-21-10.6-21-21.1 0-10.7 10.5-21.1 21-21.1 15.8 0 26.5 10.5 26.5 21.1 0 10.5-10.6 21.1-26.5 21.1zM736.1 831.9h-448c-123.2 0-224-100.8-224-224v-448c0-123.2 100.8-224 224-224h448c123.2 0 224 100.8 224 224v448c0 123.2-100.8 224-224 224zM425.6 267.5c-26.4 0-47.6 5.4-74.1 10.6L277.7 241l21.1 63.6c-52.9 37-84.6 84.7-84.6 142.7 0 100.6 95.2 179.8 211.4 179.8 104 0 195-63.3 213.3-148.5-6.7 0.8-13.5 1.2-20.4 1.2-100.4 0-179.7-74.9-179.7-167.3 0-15.4 2.4-30.2 6.5-44.3-6.5-0.4-13-0.7-19.7-0.7z m311.9-74.1l15.9-52.8-58 31.8c-21.1-5.3-42.4-10.6-63.4-10.6-100.6 0-179.8 68.8-179.8 153.4 0 84.5 79.2 153.4 179.8 153.4 95 0 179.6-68.9 179.6-153.4-0.1-47.7-31.7-89.9-74.1-121.8z"  horiz-adv-x="1024" />

    
    <glyph glyph-name="zhifeiji" unicode="&#59032;" d="M1009.319606 890.725602a31.994988 31.994988 0 0 1-35.195987 0L14.271994 250.823852a31.994988 31.994988 0 0 1 5.759998-56.310978l250.199902-100.144961 117.742954-206.047919a31.994988 31.994988 0 0 1 28.154989-16.316994 31.994988 31.994988 0 0 1 27.51599 15.676994l66.549974 110.702957 310.031879-124.139952a31.994988 31.994988 0 0 1 11.837995-2.239999 31.994988 31.994988 0 0 1 31.994987 26.87499l159.975938 959.852625a31.994988 31.994988 0 0 1-14.717994 31.994987zM100.657961 230.98686l741.32571 494.323807L302.867882 149.399892a63.989975 63.989975 0 0 1-8.638997 5.119998z m225.564912-105.262959l605.666763 649.179746-515.759799-804.995685zM806.149685-51.53003L532.911792 57.893927a63.989975 63.989975 0 0 1-19.836992 3.839999l421.375835 652.059745z"  horiz-adv-x="1024" />

    
    <glyph glyph-name="mi" unicode="&#58883;" d="M709.565 99.218V506.203c0 92.47-74.942 167.436-167.397 167.436H71.588c-3.63 0-6.566-2.923-6.566-6.514v-567.907c0-3.59 2.937-6.501 6.566-6.501h125.696c3.63 0 6.567 2.924 6.567 6.54V544.996c0 3.616 2.938 6.554 6.567 6.554H480.71c50.754 0 91.922-41.141 91.922-91.907V99.259a6.543 6.543 0 0 1 6.542-6.541h123.852c3.604-0.001 6.54 2.91 6.54 6.5zM455.747 99.258a6.525 6.525 0 0 0-6.54-6.541h-125.67c-3.629 0-6.567 2.923-6.567 6.54V440.834c0 3.616 2.938 6.553 6.568 6.553h125.669c3.63 0 6.54-2.937 6.54-6.553v-341.575zM958.272 99.258c0-3.618-2.938-6.541-6.569-6.541h-125.64c-3.632 0-6.596 2.923-6.596 6.54V667.073c0 3.63 2.964 6.567 6.596 6.567h125.64a6.563 6.563 0 0 0 6.569-6.567v-567.814z"  horiz-adv-x="1024" />

    


  </font>
</defs>
</svg>
